%TF.GenerationSoftware,KiCad,Pcbnew,7.0.2-0*%
%TF.CreationDate,2024-06-16T14:43:20+09:00*%
%TF.ProjectId,am-pcb3,616d2d70-6362-4332-9e6b-696361645f70,rev?*%
%TF.SameCoordinates,Original*%
%TF.FileFunction,Legend,Bot*%
%TF.FilePolarity,Positive*%
%FSLAX46Y46*%
G04 Gerber Fmt 4.6, Leading zero omitted, Abs format (unit mm)*
G04 Created by KiCad (PCBNEW 7.0.2-0) date 2024-06-16 14:43:20*
%MOMM*%
%LPD*%
G01*
G04 APERTURE LIST*
%ADD10C,0.150000*%
G04 APERTURE END LIST*
D10*
X219811666Y-60170952D02*
X219811666Y-60837619D01*
X220002142Y-59790000D02*
X220192619Y-60504285D01*
X220192619Y-60504285D02*
X219697380Y-60504285D01*
X219392618Y-60742380D02*
X219354523Y-60790000D01*
X219354523Y-60790000D02*
X219392618Y-60837619D01*
X219392618Y-60837619D02*
X219430714Y-60790000D01*
X219430714Y-60790000D02*
X219392618Y-60742380D01*
X219392618Y-60742380D02*
X219392618Y-60837619D01*
X218630714Y-59837619D02*
X219011666Y-59837619D01*
X219011666Y-59837619D02*
X219049762Y-60313809D01*
X219049762Y-60313809D02*
X219011666Y-60266190D01*
X219011666Y-60266190D02*
X218935476Y-60218571D01*
X218935476Y-60218571D02*
X218745000Y-60218571D01*
X218745000Y-60218571D02*
X218668809Y-60266190D01*
X218668809Y-60266190D02*
X218630714Y-60313809D01*
X218630714Y-60313809D02*
X218592619Y-60409047D01*
X218592619Y-60409047D02*
X218592619Y-60647142D01*
X218592619Y-60647142D02*
X218630714Y-60742380D01*
X218630714Y-60742380D02*
X218668809Y-60790000D01*
X218668809Y-60790000D02*
X218745000Y-60837619D01*
X218745000Y-60837619D02*
X218935476Y-60837619D01*
X218935476Y-60837619D02*
X219011666Y-60790000D01*
X219011666Y-60790000D02*
X219049762Y-60742380D01*
X218249761Y-60456666D02*
X217640238Y-60456666D01*
X217145000Y-60266190D02*
X217221190Y-60218571D01*
X217221190Y-60218571D02*
X217259285Y-60170952D01*
X217259285Y-60170952D02*
X217297381Y-60075714D01*
X217297381Y-60075714D02*
X217297381Y-60028095D01*
X217297381Y-60028095D02*
X217259285Y-59932857D01*
X217259285Y-59932857D02*
X217221190Y-59885238D01*
X217221190Y-59885238D02*
X217145000Y-59837619D01*
X217145000Y-59837619D02*
X216992619Y-59837619D01*
X216992619Y-59837619D02*
X216916428Y-59885238D01*
X216916428Y-59885238D02*
X216878333Y-59932857D01*
X216878333Y-59932857D02*
X216840238Y-60028095D01*
X216840238Y-60028095D02*
X216840238Y-60075714D01*
X216840238Y-60075714D02*
X216878333Y-60170952D01*
X216878333Y-60170952D02*
X216916428Y-60218571D01*
X216916428Y-60218571D02*
X216992619Y-60266190D01*
X216992619Y-60266190D02*
X217145000Y-60266190D01*
X217145000Y-60266190D02*
X217221190Y-60313809D01*
X217221190Y-60313809D02*
X217259285Y-60361428D01*
X217259285Y-60361428D02*
X217297381Y-60456666D01*
X217297381Y-60456666D02*
X217297381Y-60647142D01*
X217297381Y-60647142D02*
X217259285Y-60742380D01*
X217259285Y-60742380D02*
X217221190Y-60790000D01*
X217221190Y-60790000D02*
X217145000Y-60837619D01*
X217145000Y-60837619D02*
X216992619Y-60837619D01*
X216992619Y-60837619D02*
X216916428Y-60790000D01*
X216916428Y-60790000D02*
X216878333Y-60742380D01*
X216878333Y-60742380D02*
X216840238Y-60647142D01*
X216840238Y-60647142D02*
X216840238Y-60456666D01*
X216840238Y-60456666D02*
X216878333Y-60361428D01*
X216878333Y-60361428D02*
X216916428Y-60313809D01*
X216916428Y-60313809D02*
X216992619Y-60266190D01*
X216611666Y-59837619D02*
X216344999Y-60837619D01*
X216344999Y-60837619D02*
X216078333Y-59837619D01*
X244877685Y-104880315D02*
X244877685Y-104880315D01*
X245301949Y-105304579D02*
X245301949Y-105304579D01*
X245726213Y-105728843D02*
X245726213Y-105728843D01*
X246150477Y-106153107D02*
X246150477Y-106153107D01*
X246574741Y-106577371D02*
X246574741Y-106577371D01*
X246999005Y-107001635D02*
X246999005Y-107001635D01*
X247423269Y-107425899D02*
X247423269Y-107425899D01*
X247847533Y-107850163D02*
X247847533Y-107850163D01*
X209486500Y-75374500D02*
X209486500Y-75374500D01*
X209987603Y-75044506D02*
X209987603Y-75044506D01*
X210488705Y-74714511D02*
X210488705Y-74714511D01*
X210989808Y-74384517D02*
X210989808Y-74384517D01*
X211490910Y-74054523D02*
X211490910Y-74054523D01*
X211992013Y-73724528D02*
X211992013Y-73724528D01*
X212493115Y-73394534D02*
X212493115Y-73394534D01*
X212994218Y-73064540D02*
X212994218Y-73064540D01*
X213495320Y-72734545D02*
X213495320Y-72734545D01*
X213996423Y-72404551D02*
X213996423Y-72404551D01*
X214497525Y-72074557D02*
X214497525Y-72074557D01*
X209550000Y-104140000D02*
X209550000Y-104140000D01*
X210150000Y-104140000D02*
X210150000Y-104140000D01*
X210750000Y-104140000D02*
X210750000Y-104140000D01*
X211350000Y-104140000D02*
X211350000Y-104140000D01*
X211950000Y-104140000D02*
X211950000Y-104140000D01*
X273050000Y-62230000D02*
X273050000Y-62230000D01*
X273050000Y-62830000D02*
X273050000Y-62830000D01*
X273050000Y-63430000D02*
X273050000Y-63430000D01*
X273050000Y-64030000D02*
X273050000Y-64030000D01*
X273050000Y-64630000D02*
X273050000Y-64630000D01*
X273050000Y-65230000D02*
X273050000Y-65230000D01*
X273050000Y-65830000D02*
X273050000Y-65830000D01*
X273050000Y-66430000D02*
X273050000Y-66430000D01*
X273050000Y-67030000D02*
X273050000Y-67030000D01*
X273050000Y-67630000D02*
X273050000Y-67630000D01*
X273050000Y-68230000D02*
X273050000Y-68230000D01*
X273050000Y-68830000D02*
X273050000Y-68830000D01*
X273050000Y-69430000D02*
X273050000Y-69430000D01*
X273050000Y-70030000D02*
X273050000Y-70030000D01*
X273050000Y-70630000D02*
X273050000Y-70630000D01*
X273050000Y-71230000D02*
X273050000Y-71230000D01*
X273050000Y-71830000D02*
X273050000Y-71830000D01*
X273050000Y-72430000D02*
X273050000Y-72430000D01*
X273050000Y-73030000D02*
X273050000Y-73030000D01*
X273050000Y-73630000D02*
X273050000Y-73630000D01*
X273050000Y-74230000D02*
X273050000Y-74230000D01*
X273050000Y-74830000D02*
X273050000Y-74830000D01*
X273050000Y-75430000D02*
X273050000Y-75430000D01*
X273050000Y-76030000D02*
X273050000Y-76030000D01*
X273050000Y-76630000D02*
X273050000Y-76630000D01*
X273050000Y-77230000D02*
X273050000Y-77230000D01*
X273050000Y-77830000D02*
X273050000Y-77830000D01*
X273050000Y-78430000D02*
X273050000Y-78430000D01*
X273050000Y-79030000D02*
X273050000Y-79030000D01*
X273050000Y-79630000D02*
X273050000Y-79630000D01*
X273050000Y-80230000D02*
X273050000Y-80230000D01*
X273050000Y-80830000D02*
X273050000Y-80830000D01*
X273050000Y-81430000D02*
X273050000Y-81430000D01*
X273050000Y-82030000D02*
X273050000Y-82030000D01*
X209550000Y-55880000D02*
X209550000Y-55880000D01*
X210150000Y-55880000D02*
X210150000Y-55880000D01*
X210750000Y-55880000D02*
X210750000Y-55880000D01*
X211350000Y-55880000D02*
X211350000Y-55880000D01*
X211950000Y-55880000D02*
X211950000Y-55880000D01*
X242697000Y-55880000D02*
X242697000Y-55880000D01*
X243297000Y-55880000D02*
X243297000Y-55880000D01*
X243897000Y-55880000D02*
X243897000Y-55880000D01*
X244497000Y-55880000D02*
X244497000Y-55880000D01*
X245097000Y-55880000D02*
X245097000Y-55880000D01*
X240284000Y-88900000D02*
X240284000Y-88900000D01*
X240884000Y-88900000D02*
X240884000Y-88900000D01*
X241484000Y-88900000D02*
X241484000Y-88900000D01*
X242084000Y-88900000D02*
X242084000Y-88900000D01*
X242684000Y-88900000D02*
X242684000Y-88900000D01*
X243284000Y-88900000D02*
X243284000Y-88900000D01*
X243884000Y-88900000D02*
X243884000Y-88900000D01*
X244484000Y-88900000D02*
X244484000Y-88900000D01*
X245084000Y-88900000D02*
X245084000Y-88900000D01*
X245684000Y-88900000D02*
X245684000Y-88900000D01*
X246284000Y-88900000D02*
X246284000Y-88900000D01*
X246884000Y-88900000D02*
X246884000Y-88900000D01*
X247484000Y-88900000D02*
X247484000Y-88900000D01*
X248084000Y-88900000D02*
X248084000Y-88900000D01*
X248684000Y-88900000D02*
X248684000Y-88900000D01*
X249284000Y-88900000D02*
X249284000Y-88900000D01*
X249884000Y-88900000D02*
X249884000Y-88900000D01*
X250484000Y-88900000D02*
X250484000Y-88900000D01*
X251084000Y-88900000D02*
X251084000Y-88900000D01*
X251684000Y-88900000D02*
X251684000Y-88900000D01*
X252284000Y-88900000D02*
X252284000Y-88900000D01*
X252884000Y-88900000D02*
X252884000Y-88900000D01*
X253484000Y-88900000D02*
X253484000Y-88900000D01*
X254084000Y-88900000D02*
X254084000Y-88900000D01*
X254684000Y-88900000D02*
X254684000Y-88900000D01*
X255284000Y-88900000D02*
X255284000Y-88900000D01*
X255884000Y-88900000D02*
X255884000Y-88900000D01*
X256484000Y-88900000D02*
X256484000Y-88900000D01*
X257084000Y-88900000D02*
X257084000Y-88900000D01*
X257684000Y-88900000D02*
X257684000Y-88900000D01*
X213868095Y-85920238D02*
X213963333Y-85872619D01*
X213963333Y-85872619D02*
X214106190Y-85872619D01*
X214106190Y-85872619D02*
X214249047Y-85920238D01*
X214249047Y-85920238D02*
X214344285Y-86015476D01*
X214344285Y-86015476D02*
X214391904Y-86110714D01*
X214391904Y-86110714D02*
X214439523Y-86301190D01*
X214439523Y-86301190D02*
X214439523Y-86444047D01*
X214439523Y-86444047D02*
X214391904Y-86634523D01*
X214391904Y-86634523D02*
X214344285Y-86729761D01*
X214344285Y-86729761D02*
X214249047Y-86825000D01*
X214249047Y-86825000D02*
X214106190Y-86872619D01*
X214106190Y-86872619D02*
X214010952Y-86872619D01*
X214010952Y-86872619D02*
X213868095Y-86825000D01*
X213868095Y-86825000D02*
X213820476Y-86777380D01*
X213820476Y-86777380D02*
X213820476Y-86444047D01*
X213820476Y-86444047D02*
X214010952Y-86444047D01*
X213391904Y-86872619D02*
X213391904Y-85872619D01*
X213391904Y-85872619D02*
X212820476Y-86872619D01*
X212820476Y-86872619D02*
X212820476Y-85872619D01*
X212344285Y-86872619D02*
X212344285Y-85872619D01*
X212344285Y-85872619D02*
X212106190Y-85872619D01*
X212106190Y-85872619D02*
X211963333Y-85920238D01*
X211963333Y-85920238D02*
X211868095Y-86015476D01*
X211868095Y-86015476D02*
X211820476Y-86110714D01*
X211820476Y-86110714D02*
X211772857Y-86301190D01*
X211772857Y-86301190D02*
X211772857Y-86444047D01*
X211772857Y-86444047D02*
X211820476Y-86634523D01*
X211820476Y-86634523D02*
X211868095Y-86729761D01*
X211868095Y-86729761D02*
X211963333Y-86825000D01*
X211963333Y-86825000D02*
X212106190Y-86872619D01*
X212106190Y-86872619D02*
X212344285Y-86872619D01*
X200421904Y-67187619D02*
X200421904Y-66187619D01*
X200421904Y-66187619D02*
X200183809Y-66187619D01*
X200183809Y-66187619D02*
X200040952Y-66235238D01*
X200040952Y-66235238D02*
X199945714Y-66330476D01*
X199945714Y-66330476D02*
X199898095Y-66425714D01*
X199898095Y-66425714D02*
X199850476Y-66616190D01*
X199850476Y-66616190D02*
X199850476Y-66759047D01*
X199850476Y-66759047D02*
X199898095Y-66949523D01*
X199898095Y-66949523D02*
X199945714Y-67044761D01*
X199945714Y-67044761D02*
X200040952Y-67140000D01*
X200040952Y-67140000D02*
X200183809Y-67187619D01*
X200183809Y-67187619D02*
X200421904Y-67187619D01*
X250586904Y-95066428D02*
X250586904Y-93566428D01*
X250586904Y-93566428D02*
X250348809Y-93566428D01*
X250348809Y-93566428D02*
X250205952Y-93637857D01*
X250205952Y-93637857D02*
X250110714Y-93780714D01*
X250110714Y-93780714D02*
X250063095Y-93923571D01*
X250063095Y-93923571D02*
X250015476Y-94209285D01*
X250015476Y-94209285D02*
X250015476Y-94423571D01*
X250015476Y-94423571D02*
X250063095Y-94709285D01*
X250063095Y-94709285D02*
X250110714Y-94852142D01*
X250110714Y-94852142D02*
X250205952Y-94995000D01*
X250205952Y-94995000D02*
X250348809Y-95066428D01*
X250348809Y-95066428D02*
X250586904Y-95066428D01*
X249586904Y-94280714D02*
X249253571Y-94280714D01*
X249110714Y-95066428D02*
X249586904Y-95066428D01*
X249586904Y-95066428D02*
X249586904Y-93566428D01*
X249586904Y-93566428D02*
X249110714Y-93566428D01*
X248824999Y-93566428D02*
X248253571Y-93566428D01*
X248539285Y-95066428D02*
X248539285Y-93566428D01*
X199850476Y-95066428D02*
X200183809Y-94352142D01*
X200421904Y-95066428D02*
X200421904Y-93566428D01*
X200421904Y-93566428D02*
X200040952Y-93566428D01*
X200040952Y-93566428D02*
X199945714Y-93637857D01*
X199945714Y-93637857D02*
X199898095Y-93709285D01*
X199898095Y-93709285D02*
X199850476Y-93852142D01*
X199850476Y-93852142D02*
X199850476Y-94066428D01*
X199850476Y-94066428D02*
X199898095Y-94209285D01*
X199898095Y-94209285D02*
X199945714Y-94280714D01*
X199945714Y-94280714D02*
X200040952Y-94352142D01*
X200040952Y-94352142D02*
X200421904Y-94352142D01*
X198945714Y-95066428D02*
X199421904Y-95066428D01*
X199421904Y-95066428D02*
X199421904Y-93566428D01*
X198421904Y-93566428D02*
X198231428Y-93566428D01*
X198231428Y-93566428D02*
X198136190Y-93637857D01*
X198136190Y-93637857D02*
X198040952Y-93780714D01*
X198040952Y-93780714D02*
X197993333Y-94066428D01*
X197993333Y-94066428D02*
X197993333Y-94566428D01*
X197993333Y-94566428D02*
X198040952Y-94852142D01*
X198040952Y-94852142D02*
X198136190Y-94995000D01*
X198136190Y-94995000D02*
X198231428Y-95066428D01*
X198231428Y-95066428D02*
X198421904Y-95066428D01*
X198421904Y-95066428D02*
X198517142Y-94995000D01*
X198517142Y-94995000D02*
X198612380Y-94852142D01*
X198612380Y-94852142D02*
X198659999Y-94566428D01*
X198659999Y-94566428D02*
X198659999Y-94066428D01*
X198659999Y-94066428D02*
X198612380Y-93780714D01*
X198612380Y-93780714D02*
X198517142Y-93637857D01*
X198517142Y-93637857D02*
X198421904Y-93566428D01*
X199072571Y-110605809D02*
X198929714Y-110653428D01*
X198929714Y-110653428D02*
X198882095Y-110701047D01*
X198882095Y-110701047D02*
X198834476Y-110796285D01*
X198834476Y-110796285D02*
X198834476Y-110939142D01*
X198834476Y-110939142D02*
X198882095Y-111034380D01*
X198882095Y-111034380D02*
X198929714Y-111082000D01*
X198929714Y-111082000D02*
X199024952Y-111129619D01*
X199024952Y-111129619D02*
X199405904Y-111129619D01*
X199405904Y-111129619D02*
X199405904Y-110129619D01*
X199405904Y-110129619D02*
X199072571Y-110129619D01*
X199072571Y-110129619D02*
X198977333Y-110177238D01*
X198977333Y-110177238D02*
X198929714Y-110224857D01*
X198929714Y-110224857D02*
X198882095Y-110320095D01*
X198882095Y-110320095D02*
X198882095Y-110415333D01*
X198882095Y-110415333D02*
X198929714Y-110510571D01*
X198929714Y-110510571D02*
X198977333Y-110558190D01*
X198977333Y-110558190D02*
X199072571Y-110605809D01*
X199072571Y-110605809D02*
X199405904Y-110605809D01*
X200469523Y-71777857D02*
X199993333Y-71777857D01*
X200564761Y-72206428D02*
X200231428Y-70706428D01*
X200231428Y-70706428D02*
X199898095Y-72206428D01*
X199564761Y-72206428D02*
X199564761Y-70706428D01*
X199564761Y-70706428D02*
X199231428Y-71777857D01*
X199231428Y-71777857D02*
X198898095Y-70706428D01*
X198898095Y-70706428D02*
X198898095Y-72206428D01*
X198421904Y-72206428D02*
X198421904Y-70706428D01*
X198421904Y-70706428D02*
X198040952Y-70706428D01*
X198040952Y-70706428D02*
X197945714Y-70777857D01*
X197945714Y-70777857D02*
X197898095Y-70849285D01*
X197898095Y-70849285D02*
X197850476Y-70992142D01*
X197850476Y-70992142D02*
X197850476Y-71206428D01*
X197850476Y-71206428D02*
X197898095Y-71349285D01*
X197898095Y-71349285D02*
X197945714Y-71420714D01*
X197945714Y-71420714D02*
X198040952Y-71492142D01*
X198040952Y-71492142D02*
X198421904Y-71492142D01*
X247475428Y-103525619D02*
X247284952Y-103525619D01*
X247284952Y-103525619D02*
X247189714Y-103573238D01*
X247189714Y-103573238D02*
X247094476Y-103668476D01*
X247094476Y-103668476D02*
X247046857Y-103858952D01*
X247046857Y-103858952D02*
X247046857Y-104192285D01*
X247046857Y-104192285D02*
X247094476Y-104382761D01*
X247094476Y-104382761D02*
X247189714Y-104478000D01*
X247189714Y-104478000D02*
X247284952Y-104525619D01*
X247284952Y-104525619D02*
X247475428Y-104525619D01*
X247475428Y-104525619D02*
X247570666Y-104478000D01*
X247570666Y-104478000D02*
X247665904Y-104382761D01*
X247665904Y-104382761D02*
X247713523Y-104192285D01*
X247713523Y-104192285D02*
X247713523Y-103858952D01*
X247713523Y-103858952D02*
X247665904Y-103668476D01*
X247665904Y-103668476D02*
X247570666Y-103573238D01*
X247570666Y-103573238D02*
X247475428Y-103525619D01*
X246618285Y-103525619D02*
X246618285Y-104335142D01*
X246618285Y-104335142D02*
X246570666Y-104430380D01*
X246570666Y-104430380D02*
X246523047Y-104478000D01*
X246523047Y-104478000D02*
X246427809Y-104525619D01*
X246427809Y-104525619D02*
X246237333Y-104525619D01*
X246237333Y-104525619D02*
X246142095Y-104478000D01*
X246142095Y-104478000D02*
X246094476Y-104430380D01*
X246094476Y-104430380D02*
X246046857Y-104335142D01*
X246046857Y-104335142D02*
X246046857Y-103525619D01*
X245713523Y-103525619D02*
X245142095Y-103525619D01*
X245427809Y-104525619D02*
X245427809Y-103525619D01*
X213899761Y-93492619D02*
X213566428Y-94492619D01*
X213566428Y-94492619D02*
X213233095Y-93492619D01*
X213042618Y-93492619D02*
X212471190Y-93492619D01*
X212756904Y-94492619D02*
X212756904Y-93492619D01*
X212233094Y-93492619D02*
X211566428Y-94492619D01*
X211566428Y-93492619D02*
X212233094Y-94492619D01*
X229320256Y-102583124D02*
X229177399Y-102630743D01*
X229177399Y-102630743D02*
X229129780Y-102678362D01*
X229129780Y-102678362D02*
X229082161Y-102773600D01*
X229082161Y-102773600D02*
X229082161Y-102916457D01*
X229082161Y-102916457D02*
X229129780Y-103011695D01*
X229129780Y-103011695D02*
X229177399Y-103059315D01*
X229177399Y-103059315D02*
X229272637Y-103106934D01*
X229272637Y-103106934D02*
X229653589Y-103106934D01*
X229653589Y-103106934D02*
X229653589Y-102106934D01*
X229653589Y-102106934D02*
X229320256Y-102106934D01*
X229320256Y-102106934D02*
X229225018Y-102154553D01*
X229225018Y-102154553D02*
X229177399Y-102202172D01*
X229177399Y-102202172D02*
X229129780Y-102297410D01*
X229129780Y-102297410D02*
X229129780Y-102392648D01*
X229129780Y-102392648D02*
X229177399Y-102487886D01*
X229177399Y-102487886D02*
X229225018Y-102535505D01*
X229225018Y-102535505D02*
X229320256Y-102583124D01*
X229320256Y-102583124D02*
X229653589Y-102583124D01*
X214534761Y-78252619D02*
X214201428Y-79252619D01*
X214201428Y-79252619D02*
X213868095Y-78252619D01*
X212963333Y-79252619D02*
X213296666Y-78776428D01*
X213534761Y-79252619D02*
X213534761Y-78252619D01*
X213534761Y-78252619D02*
X213153809Y-78252619D01*
X213153809Y-78252619D02*
X213058571Y-78300238D01*
X213058571Y-78300238D02*
X213010952Y-78347857D01*
X213010952Y-78347857D02*
X212963333Y-78443095D01*
X212963333Y-78443095D02*
X212963333Y-78585952D01*
X212963333Y-78585952D02*
X213010952Y-78681190D01*
X213010952Y-78681190D02*
X213058571Y-78728809D01*
X213058571Y-78728809D02*
X213153809Y-78776428D01*
X213153809Y-78776428D02*
X213534761Y-78776428D01*
X212629999Y-78252619D02*
X211963333Y-79252619D01*
X211963333Y-78252619D02*
X212629999Y-79252619D01*
X200564761Y-121506428D02*
X199993333Y-121506428D01*
X200279047Y-123006428D02*
X200279047Y-121506428D01*
X199183809Y-123006428D02*
X199659999Y-123006428D01*
X199659999Y-123006428D02*
X199659999Y-121506428D01*
X198659999Y-121506428D02*
X198469523Y-121506428D01*
X198469523Y-121506428D02*
X198374285Y-121577857D01*
X198374285Y-121577857D02*
X198279047Y-121720714D01*
X198279047Y-121720714D02*
X198231428Y-122006428D01*
X198231428Y-122006428D02*
X198231428Y-122506428D01*
X198231428Y-122506428D02*
X198279047Y-122792142D01*
X198279047Y-122792142D02*
X198374285Y-122935000D01*
X198374285Y-122935000D02*
X198469523Y-123006428D01*
X198469523Y-123006428D02*
X198659999Y-123006428D01*
X198659999Y-123006428D02*
X198755237Y-122935000D01*
X198755237Y-122935000D02*
X198850475Y-122792142D01*
X198850475Y-122792142D02*
X198898094Y-122506428D01*
X198898094Y-122506428D02*
X198898094Y-122006428D01*
X198898094Y-122006428D02*
X198850475Y-121720714D01*
X198850475Y-121720714D02*
X198755237Y-121577857D01*
X198755237Y-121577857D02*
X198659999Y-121506428D01*
X270557571Y-95600380D02*
X270748047Y-95600380D01*
X270748047Y-95600380D02*
X270843285Y-95552761D01*
X270843285Y-95552761D02*
X270938523Y-95457523D01*
X270938523Y-95457523D02*
X270986142Y-95267047D01*
X270986142Y-95267047D02*
X270986142Y-94933714D01*
X270986142Y-94933714D02*
X270938523Y-94743238D01*
X270938523Y-94743238D02*
X270843285Y-94648000D01*
X270843285Y-94648000D02*
X270748047Y-94600380D01*
X270748047Y-94600380D02*
X270557571Y-94600380D01*
X270557571Y-94600380D02*
X270462333Y-94648000D01*
X270462333Y-94648000D02*
X270367095Y-94743238D01*
X270367095Y-94743238D02*
X270319476Y-94933714D01*
X270319476Y-94933714D02*
X270319476Y-95267047D01*
X270319476Y-95267047D02*
X270367095Y-95457523D01*
X270367095Y-95457523D02*
X270462333Y-95552761D01*
X270462333Y-95552761D02*
X270557571Y-95600380D01*
X254396904Y-67187619D02*
X254396904Y-66187619D01*
X243623589Y-122730743D02*
X243623589Y-121230743D01*
X243623589Y-121230743D02*
X243290256Y-122302172D01*
X243290256Y-122302172D02*
X242956923Y-121230743D01*
X242956923Y-121230743D02*
X242956923Y-122730743D01*
X242290256Y-121230743D02*
X242099780Y-121230743D01*
X242099780Y-121230743D02*
X242004542Y-121302172D01*
X242004542Y-121302172D02*
X241909304Y-121445029D01*
X241909304Y-121445029D02*
X241861685Y-121730743D01*
X241861685Y-121730743D02*
X241861685Y-122230743D01*
X241861685Y-122230743D02*
X241909304Y-122516457D01*
X241909304Y-122516457D02*
X242004542Y-122659315D01*
X242004542Y-122659315D02*
X242099780Y-122730743D01*
X242099780Y-122730743D02*
X242290256Y-122730743D01*
X242290256Y-122730743D02*
X242385494Y-122659315D01*
X242385494Y-122659315D02*
X242480732Y-122516457D01*
X242480732Y-122516457D02*
X242528351Y-122230743D01*
X242528351Y-122230743D02*
X242528351Y-121730743D01*
X242528351Y-121730743D02*
X242480732Y-121445029D01*
X242480732Y-121445029D02*
X242385494Y-121302172D01*
X242385494Y-121302172D02*
X242290256Y-121230743D01*
X241433113Y-122730743D02*
X241433113Y-121230743D01*
X241433113Y-121230743D02*
X241195018Y-121230743D01*
X241195018Y-121230743D02*
X241052161Y-121302172D01*
X241052161Y-121302172D02*
X240956923Y-121445029D01*
X240956923Y-121445029D02*
X240909304Y-121587886D01*
X240909304Y-121587886D02*
X240861685Y-121873600D01*
X240861685Y-121873600D02*
X240861685Y-122087886D01*
X240861685Y-122087886D02*
X240909304Y-122373600D01*
X240909304Y-122373600D02*
X240956923Y-122516457D01*
X240956923Y-122516457D02*
X241052161Y-122659315D01*
X241052161Y-122659315D02*
X241195018Y-122730743D01*
X241195018Y-122730743D02*
X241433113Y-122730743D01*
X253285714Y-105226428D02*
X253761904Y-105226428D01*
X253761904Y-105226428D02*
X253761904Y-103726428D01*
X252952380Y-105226428D02*
X252952380Y-103726428D01*
X252952380Y-103726428D02*
X252571428Y-103726428D01*
X252571428Y-103726428D02*
X252476190Y-103797857D01*
X252476190Y-103797857D02*
X252428571Y-103869285D01*
X252428571Y-103869285D02*
X252380952Y-104012142D01*
X252380952Y-104012142D02*
X252380952Y-104226428D01*
X252380952Y-104226428D02*
X252428571Y-104369285D01*
X252428571Y-104369285D02*
X252476190Y-104440714D01*
X252476190Y-104440714D02*
X252571428Y-104512142D01*
X252571428Y-104512142D02*
X252952380Y-104512142D01*
X251619047Y-104440714D02*
X251952380Y-104440714D01*
X251952380Y-105226428D02*
X251952380Y-103726428D01*
X251952380Y-103726428D02*
X251476190Y-103726428D01*
X199342476Y-114590380D02*
X199390095Y-114638000D01*
X199390095Y-114638000D02*
X199532952Y-114685619D01*
X199532952Y-114685619D02*
X199628190Y-114685619D01*
X199628190Y-114685619D02*
X199771047Y-114638000D01*
X199771047Y-114638000D02*
X199866285Y-114542761D01*
X199866285Y-114542761D02*
X199913904Y-114447523D01*
X199913904Y-114447523D02*
X199961523Y-114257047D01*
X199961523Y-114257047D02*
X199961523Y-114114190D01*
X199961523Y-114114190D02*
X199913904Y-113923714D01*
X199913904Y-113923714D02*
X199866285Y-113828476D01*
X199866285Y-113828476D02*
X199771047Y-113733238D01*
X199771047Y-113733238D02*
X199628190Y-113685619D01*
X199628190Y-113685619D02*
X199532952Y-113685619D01*
X199532952Y-113685619D02*
X199390095Y-113733238D01*
X199390095Y-113733238D02*
X199342476Y-113780857D01*
X255968571Y-71420714D02*
X255825714Y-71492142D01*
X255825714Y-71492142D02*
X255778095Y-71563571D01*
X255778095Y-71563571D02*
X255730476Y-71706428D01*
X255730476Y-71706428D02*
X255730476Y-71920714D01*
X255730476Y-71920714D02*
X255778095Y-72063571D01*
X255778095Y-72063571D02*
X255825714Y-72135000D01*
X255825714Y-72135000D02*
X255920952Y-72206428D01*
X255920952Y-72206428D02*
X256301904Y-72206428D01*
X256301904Y-72206428D02*
X256301904Y-70706428D01*
X256301904Y-70706428D02*
X255968571Y-70706428D01*
X255968571Y-70706428D02*
X255873333Y-70777857D01*
X255873333Y-70777857D02*
X255825714Y-70849285D01*
X255825714Y-70849285D02*
X255778095Y-70992142D01*
X255778095Y-70992142D02*
X255778095Y-71135000D01*
X255778095Y-71135000D02*
X255825714Y-71277857D01*
X255825714Y-71277857D02*
X255873333Y-71349285D01*
X255873333Y-71349285D02*
X255968571Y-71420714D01*
X255968571Y-71420714D02*
X256301904Y-71420714D01*
X255301904Y-72206428D02*
X255301904Y-70706428D01*
X255301904Y-70706428D02*
X254920952Y-70706428D01*
X254920952Y-70706428D02*
X254825714Y-70777857D01*
X254825714Y-70777857D02*
X254778095Y-70849285D01*
X254778095Y-70849285D02*
X254730476Y-70992142D01*
X254730476Y-70992142D02*
X254730476Y-71206428D01*
X254730476Y-71206428D02*
X254778095Y-71349285D01*
X254778095Y-71349285D02*
X254825714Y-71420714D01*
X254825714Y-71420714D02*
X254920952Y-71492142D01*
X254920952Y-71492142D02*
X255301904Y-71492142D01*
X253968571Y-71420714D02*
X254301904Y-71420714D01*
X254301904Y-72206428D02*
X254301904Y-70706428D01*
X254301904Y-70706428D02*
X253825714Y-70706428D01*
X270954523Y-76665000D02*
X270811666Y-76712619D01*
X270811666Y-76712619D02*
X270573571Y-76712619D01*
X270573571Y-76712619D02*
X270478333Y-76665000D01*
X270478333Y-76665000D02*
X270430714Y-76617380D01*
X270430714Y-76617380D02*
X270383095Y-76522142D01*
X270383095Y-76522142D02*
X270383095Y-76426904D01*
X270383095Y-76426904D02*
X270430714Y-76331666D01*
X270430714Y-76331666D02*
X270478333Y-76284047D01*
X270478333Y-76284047D02*
X270573571Y-76236428D01*
X270573571Y-76236428D02*
X270764047Y-76188809D01*
X270764047Y-76188809D02*
X270859285Y-76141190D01*
X270859285Y-76141190D02*
X270906904Y-76093571D01*
X270906904Y-76093571D02*
X270954523Y-75998333D01*
X270954523Y-75998333D02*
X270954523Y-75903095D01*
X270954523Y-75903095D02*
X270906904Y-75807857D01*
X270906904Y-75807857D02*
X270859285Y-75760238D01*
X270859285Y-75760238D02*
X270764047Y-75712619D01*
X270764047Y-75712619D02*
X270525952Y-75712619D01*
X270525952Y-75712619D02*
X270383095Y-75760238D01*
X269954523Y-76712619D02*
X269954523Y-75712619D01*
X269954523Y-75712619D02*
X269573571Y-75712619D01*
X269573571Y-75712619D02*
X269478333Y-75760238D01*
X269478333Y-75760238D02*
X269430714Y-75807857D01*
X269430714Y-75807857D02*
X269383095Y-75903095D01*
X269383095Y-75903095D02*
X269383095Y-76045952D01*
X269383095Y-76045952D02*
X269430714Y-76141190D01*
X269430714Y-76141190D02*
X269478333Y-76188809D01*
X269478333Y-76188809D02*
X269573571Y-76236428D01*
X269573571Y-76236428D02*
X269954523Y-76236428D01*
X268954523Y-76712619D02*
X268954523Y-75712619D01*
X268383095Y-76712619D02*
X268811666Y-76141190D01*
X268383095Y-75712619D02*
X268954523Y-76284047D01*
X199342476Y-86650380D02*
X199390095Y-86698000D01*
X199390095Y-86698000D02*
X199532952Y-86745619D01*
X199532952Y-86745619D02*
X199628190Y-86745619D01*
X199628190Y-86745619D02*
X199771047Y-86698000D01*
X199771047Y-86698000D02*
X199866285Y-86602761D01*
X199866285Y-86602761D02*
X199913904Y-86507523D01*
X199913904Y-86507523D02*
X199961523Y-86317047D01*
X199961523Y-86317047D02*
X199961523Y-86174190D01*
X199961523Y-86174190D02*
X199913904Y-85983714D01*
X199913904Y-85983714D02*
X199866285Y-85888476D01*
X199866285Y-85888476D02*
X199771047Y-85793238D01*
X199771047Y-85793238D02*
X199628190Y-85745619D01*
X199628190Y-85745619D02*
X199532952Y-85745619D01*
X199532952Y-85745619D02*
X199390095Y-85793238D01*
X199390095Y-85793238D02*
X199342476Y-85840857D01*
X180609904Y-58805619D02*
X180609904Y-57805619D01*
X180133714Y-58805619D02*
X180133714Y-57805619D01*
X180133714Y-57805619D02*
X179562286Y-58805619D01*
X179562286Y-58805619D02*
X179562286Y-57805619D01*
X213756904Y-122432619D02*
X213756904Y-121432619D01*
X213756904Y-121432619D02*
X213423571Y-122146904D01*
X213423571Y-122146904D02*
X213090238Y-121432619D01*
X213090238Y-121432619D02*
X213090238Y-122432619D01*
X212614047Y-122432619D02*
X212614047Y-121432619D01*
X211566429Y-122337380D02*
X211614048Y-122385000D01*
X211614048Y-122385000D02*
X211756905Y-122432619D01*
X211756905Y-122432619D02*
X211852143Y-122432619D01*
X211852143Y-122432619D02*
X211995000Y-122385000D01*
X211995000Y-122385000D02*
X212090238Y-122289761D01*
X212090238Y-122289761D02*
X212137857Y-122194523D01*
X212137857Y-122194523D02*
X212185476Y-122004047D01*
X212185476Y-122004047D02*
X212185476Y-121861190D01*
X212185476Y-121861190D02*
X212137857Y-121670714D01*
X212137857Y-121670714D02*
X212090238Y-121575476D01*
X212090238Y-121575476D02*
X211995000Y-121480238D01*
X211995000Y-121480238D02*
X211852143Y-121432619D01*
X211852143Y-121432619D02*
X211756905Y-121432619D01*
X211756905Y-121432619D02*
X211614048Y-121480238D01*
X211614048Y-121480238D02*
X211566429Y-121527857D01*
X199151904Y-90793809D02*
X198818571Y-90793809D01*
X198675714Y-91317619D02*
X199151904Y-91317619D01*
X199151904Y-91317619D02*
X199151904Y-90317619D01*
X199151904Y-90317619D02*
X198675714Y-90317619D01*
X200469523Y-64600000D02*
X200326666Y-64647619D01*
X200326666Y-64647619D02*
X200088571Y-64647619D01*
X200088571Y-64647619D02*
X199993333Y-64600000D01*
X199993333Y-64600000D02*
X199945714Y-64552380D01*
X199945714Y-64552380D02*
X199898095Y-64457142D01*
X199898095Y-64457142D02*
X199898095Y-64361904D01*
X199898095Y-64361904D02*
X199945714Y-64266666D01*
X199945714Y-64266666D02*
X199993333Y-64219047D01*
X199993333Y-64219047D02*
X200088571Y-64171428D01*
X200088571Y-64171428D02*
X200279047Y-64123809D01*
X200279047Y-64123809D02*
X200374285Y-64076190D01*
X200374285Y-64076190D02*
X200421904Y-64028571D01*
X200421904Y-64028571D02*
X200469523Y-63933333D01*
X200469523Y-63933333D02*
X200469523Y-63838095D01*
X200469523Y-63838095D02*
X200421904Y-63742857D01*
X200421904Y-63742857D02*
X200374285Y-63695238D01*
X200374285Y-63695238D02*
X200279047Y-63647619D01*
X200279047Y-63647619D02*
X200040952Y-63647619D01*
X200040952Y-63647619D02*
X199898095Y-63695238D01*
X199898095Y-61155238D02*
X199993333Y-61107619D01*
X199993333Y-61107619D02*
X200136190Y-61107619D01*
X200136190Y-61107619D02*
X200279047Y-61155238D01*
X200279047Y-61155238D02*
X200374285Y-61250476D01*
X200374285Y-61250476D02*
X200421904Y-61345714D01*
X200421904Y-61345714D02*
X200469523Y-61536190D01*
X200469523Y-61536190D02*
X200469523Y-61679047D01*
X200469523Y-61679047D02*
X200421904Y-61869523D01*
X200421904Y-61869523D02*
X200374285Y-61964761D01*
X200374285Y-61964761D02*
X200279047Y-62060000D01*
X200279047Y-62060000D02*
X200136190Y-62107619D01*
X200136190Y-62107619D02*
X200040952Y-62107619D01*
X200040952Y-62107619D02*
X199898095Y-62060000D01*
X199898095Y-62060000D02*
X199850476Y-62012380D01*
X199850476Y-62012380D02*
X199850476Y-61679047D01*
X199850476Y-61679047D02*
X200040952Y-61679047D01*
X237251904Y-72206428D02*
X237251904Y-70706428D01*
X237251904Y-70706428D02*
X236918571Y-71777857D01*
X236918571Y-71777857D02*
X236585238Y-70706428D01*
X236585238Y-70706428D02*
X236585238Y-72206428D01*
X236109047Y-72206428D02*
X236109047Y-70706428D01*
X235728095Y-70706428D02*
X235061429Y-72206428D01*
X235061429Y-70706428D02*
X235728095Y-72206428D01*
X198389904Y-118733809D02*
X198056571Y-118733809D01*
X197913714Y-119257619D02*
X198389904Y-119257619D01*
X198389904Y-119257619D02*
X198389904Y-118257619D01*
X198389904Y-118257619D02*
X197913714Y-118257619D01*
X199072571Y-82665809D02*
X198929714Y-82713428D01*
X198929714Y-82713428D02*
X198882095Y-82761047D01*
X198882095Y-82761047D02*
X198834476Y-82856285D01*
X198834476Y-82856285D02*
X198834476Y-82999142D01*
X198834476Y-82999142D02*
X198882095Y-83094380D01*
X198882095Y-83094380D02*
X198929714Y-83142000D01*
X198929714Y-83142000D02*
X199024952Y-83189619D01*
X199024952Y-83189619D02*
X199405904Y-83189619D01*
X199405904Y-83189619D02*
X199405904Y-82189619D01*
X199405904Y-82189619D02*
X199072571Y-82189619D01*
X199072571Y-82189619D02*
X198977333Y-82237238D01*
X198977333Y-82237238D02*
X198929714Y-82284857D01*
X198929714Y-82284857D02*
X198882095Y-82380095D01*
X198882095Y-82380095D02*
X198882095Y-82475333D01*
X198882095Y-82475333D02*
X198929714Y-82570571D01*
X198929714Y-82570571D02*
X198977333Y-82618190D01*
X198977333Y-82618190D02*
X199072571Y-82665809D01*
X199072571Y-82665809D02*
X199405904Y-82665809D01*
X231622161Y-103011695D02*
X231669780Y-103059315D01*
X231669780Y-103059315D02*
X231812637Y-103106934D01*
X231812637Y-103106934D02*
X231907875Y-103106934D01*
X231907875Y-103106934D02*
X232050732Y-103059315D01*
X232050732Y-103059315D02*
X232145970Y-102964076D01*
X232145970Y-102964076D02*
X232193589Y-102868838D01*
X232193589Y-102868838D02*
X232241208Y-102678362D01*
X232241208Y-102678362D02*
X232241208Y-102535505D01*
X232241208Y-102535505D02*
X232193589Y-102345029D01*
X232193589Y-102345029D02*
X232145970Y-102249791D01*
X232145970Y-102249791D02*
X232050732Y-102154553D01*
X232050732Y-102154553D02*
X231907875Y-102106934D01*
X231907875Y-102106934D02*
X231812637Y-102106934D01*
X231812637Y-102106934D02*
X231669780Y-102154553D01*
X231669780Y-102154553D02*
X231622161Y-102202172D01*
X270504095Y-91044380D02*
X270504095Y-92044380D01*
X235368589Y-102583124D02*
X235035256Y-102583124D01*
X234892399Y-103106934D02*
X235368589Y-103106934D01*
X235368589Y-103106934D02*
X235368589Y-102106934D01*
X235368589Y-102106934D02*
X234892399Y-102106934D01*
X270319523Y-110081904D02*
X269843333Y-110081904D01*
X270414761Y-110367619D02*
X270081428Y-109367619D01*
X270081428Y-109367619D02*
X269748095Y-110367619D01*
X269414761Y-110367619D02*
X269414761Y-109367619D01*
X269414761Y-109367619D02*
X268843333Y-110367619D01*
X268843333Y-110367619D02*
X268843333Y-109367619D01*
X268509999Y-109367619D02*
X267938571Y-109367619D01*
X268224285Y-110367619D02*
X268224285Y-109367619D01*
%TO.C,U81*%
X261746904Y-67114761D02*
X261651666Y-67162380D01*
X261651666Y-67162380D02*
X261508809Y-67162380D01*
X261508809Y-67162380D02*
X261365952Y-67114761D01*
X261365952Y-67114761D02*
X261270714Y-67019523D01*
X261270714Y-67019523D02*
X261223095Y-66924285D01*
X261223095Y-66924285D02*
X261175476Y-66733809D01*
X261175476Y-66733809D02*
X261175476Y-66590952D01*
X261175476Y-66590952D02*
X261223095Y-66400476D01*
X261223095Y-66400476D02*
X261270714Y-66305238D01*
X261270714Y-66305238D02*
X261365952Y-66210000D01*
X261365952Y-66210000D02*
X261508809Y-66162380D01*
X261508809Y-66162380D02*
X261604047Y-66162380D01*
X261604047Y-66162380D02*
X261746904Y-66210000D01*
X261746904Y-66210000D02*
X261794523Y-66257619D01*
X261794523Y-66257619D02*
X261794523Y-66590952D01*
X261794523Y-66590952D02*
X261604047Y-66590952D01*
X261413571Y-71218180D02*
X261604047Y-71218180D01*
X261604047Y-71218180D02*
X261699285Y-71170561D01*
X261699285Y-71170561D02*
X261794523Y-71075323D01*
X261794523Y-71075323D02*
X261842142Y-70884847D01*
X261842142Y-70884847D02*
X261842142Y-70551514D01*
X261842142Y-70551514D02*
X261794523Y-70361038D01*
X261794523Y-70361038D02*
X261699285Y-70265800D01*
X261699285Y-70265800D02*
X261604047Y-70218180D01*
X261604047Y-70218180D02*
X261413571Y-70218180D01*
X261413571Y-70218180D02*
X261318333Y-70265800D01*
X261318333Y-70265800D02*
X261223095Y-70361038D01*
X261223095Y-70361038D02*
X261175476Y-70551514D01*
X261175476Y-70551514D02*
X261175476Y-70884847D01*
X261175476Y-70884847D02*
X261223095Y-71075323D01*
X261223095Y-71075323D02*
X261318333Y-71170561D01*
X261318333Y-71170561D02*
X261413571Y-71218180D01*
%TD*%
M02*
