M48
; DRILL file {KiCad 7.0.2-0} date 2024 June 16, Sunday 14:46:40
; FORMAT={-:-/ absolute / metric / decimal}
; #@! TF.CreationDate,2024-06-16T14:46:40+09:00
; #@! TF.GenerationSoftware,Kicad,Pcbnew,7.0.2-0
; #@! TF.FileFunction,MixedPlating,1,2
FMAT,2
METRIC
; #@! TA.AperFunction,Plated,PTH,ViaDrill
T1C0.400
; #@! TA.AperFunction,Plated,PTH,ComponentDrill
T2C0.400
; #@! TA.AperFunction,Plated,PTH,ComponentDrill
T3C0.650
; #@! TA.AperFunction,Plated,PTH,ComponentDrill
T4C0.700
; #@! TA.AperFunction,Plated,PTH,ComponentDrill
T5C0.800
; #@! TA.AperFunction,Plated,PTH,ComponentDrill
T6C0.900
; #@! TA.AperFunction,Plated,PTH,ComponentDrill
T7C1.000
; #@! TA.AperFunction,Plated,PTH,ComponentDrill
T8C1.200
; #@! TA.AperFunction,Plated,PTH,ComponentDrill
T9C1.500
; #@! TA.AperFunction,Plated,PTH,ComponentDrill
T10C1.600
; #@! TA.AperFunction,Plated,PTH,ComponentDrill
T11C3.000
; #@! TA.AperFunction,NonPlated,NPTH,ComponentDrill
T12C1.200
%
G90
G05
T1
X180.34Y-53.34
X180.34Y-76.2
X180.34Y-93.98
X180.34Y-99.06
X180.34Y-104.14
X180.34Y-121.92
X185.42Y-76.2
X185.42Y-81.28
X185.42Y-104.14
X185.42Y-109.22
X195.58Y-63.5
X195.58Y-76.2
X195.58Y-104.14
X200.66Y-60.96
X200.66Y-68.58
X200.66Y-86.36
X208.28Y-53.34
X213.36Y-53.34
X213.36Y-71.12
X213.42Y-76.2
X213.42Y-99.06
X215.9Y-114.3
X220.98Y-116.84
X223.52Y-53.34
X223.52Y-63.5
X223.58Y-76.2
X226.06Y-71.12
X226.06Y-114.3
X226.12Y-99.06
X228.6Y-63.5
X233.68Y-86.36
X238.82Y-81.28
X241.3Y-53.34
X241.3Y-71.12
X243.84Y-93.98
X243.85Y-78.73
X246.38Y-53.34
X246.38Y-104.14
X251.47Y-93.97
X252.73Y-111.76
X256.54Y-121.92
X259.08Y-63.21
X259.08Y-106.68
X259.08Y-111.76
X261.62Y-91.44
X261.63Y-76.19
X264.16Y-109.22
X271.78Y-53.05
X271.78Y-76.2
X271.78Y-81.28
X271.78Y-99.06
X271.78Y-104.14
X271.78Y-111.76
X271.78Y-121.92
X271.79Y-93.97
T3
X227.14Y-129.54
X227.14Y-132.08
T4
X185.42Y-86.36
X185.42Y-88.9
X185.42Y-91.44
X185.42Y-114.3
X185.42Y-116.84
X185.42Y-119.38
X246.39Y-91.43
X248.93Y-91.43
X251.47Y-91.43
T5
X180.34Y-78.74
X180.34Y-81.28
X180.34Y-106.68
X180.34Y-109.22
X180.92Y-61.25
X180.92Y-65.75
X182.88Y-78.74
X182.88Y-81.28
X182.88Y-106.68
X182.88Y-109.22
X185.42Y-61.25
X185.42Y-63.5
X185.42Y-65.75
X187.96Y-63.5
X187.96Y-66.04
X187.96Y-83.82
X187.96Y-86.36
X187.96Y-88.9
X187.96Y-91.44
X187.96Y-93.98
X187.96Y-111.76
X187.96Y-114.3
X187.96Y-116.84
X187.96Y-119.38
X187.96Y-121.92
X188.16Y-78.74
X188.16Y-106.68
X190.5Y-60.96
X190.5Y-71.12
X190.5Y-73.66
X190.5Y-83.82
X190.5Y-111.76
X193.04Y-55.88
X193.04Y-58.42
X193.04Y-60.96
X193.04Y-66.04
X193.04Y-68.58
X193.04Y-78.74
X193.04Y-83.82
X193.04Y-88.9
X193.04Y-91.44
X193.04Y-106.68
X193.04Y-111.76
X193.04Y-116.84
X193.04Y-119.38
X195.58Y-53.34
X195.58Y-58.42
X195.58Y-60.96
X195.58Y-66.04
X195.58Y-68.58
X195.58Y-83.82
X195.58Y-88.9
X195.58Y-91.44
X195.58Y-99.06
X195.58Y-101.6
X195.58Y-111.76
X195.58Y-116.84
X195.58Y-119.38
X198.12Y-53.34
X198.12Y-60.96
X198.12Y-63.5
X198.12Y-66.04
X198.12Y-78.74
X198.12Y-81.28
X198.12Y-83.82
X198.12Y-86.36
X198.12Y-88.9
X198.12Y-106.68
X198.12Y-109.22
X198.12Y-111.76
X198.12Y-114.3
X198.12Y-116.84
X200.46Y-104.14
X200.46Y-106.68
X200.66Y-53.34
X200.66Y-55.88
X200.66Y-58.42
X200.66Y-76.2
X200.66Y-78.74
X200.66Y-81.28
X200.66Y-83.82
X200.66Y-88.9
X200.66Y-91.44
X200.66Y-109.22
X200.66Y-111.76
X200.66Y-116.84
X200.66Y-119.38
X200.95Y-43.47
X200.95Y-47.97
X203.2Y-47.97
X203.2Y-58.42
X203.2Y-60.96
X203.2Y-63.5
X203.2Y-66.04
X203.2Y-76.2
X203.2Y-78.74
X203.2Y-104.14
X203.2Y-106.68
X203.78Y-81.57
X203.78Y-83.82
X203.78Y-86.07
X203.78Y-109.535
X203.78Y-111.785
X203.78Y-114.035
X205.45Y-43.47
X205.45Y-47.97
X205.74Y-66.04
X205.74Y-93.98
X205.74Y-96.52
X208.28Y-60.96
X208.28Y-63.5
X208.28Y-81.57
X208.28Y-86.07
X208.28Y-109.535
X208.28Y-114.035
X210.82Y-99.06
X210.82Y-101.6
X213.36Y-106.68
X213.36Y-109.22
X213.36Y-111.76
X213.36Y-114.3
X213.36Y-119.38
X213.36Y-121.92
X215.9Y-58.42
X215.9Y-60.96
X215.9Y-63.5
X215.9Y-66.04
X215.9Y-104.14
X215.9Y-106.68
X215.9Y-109.22
X215.9Y-111.84
X215.9Y-116.84
X215.9Y-119.38
X215.9Y-121.92
X218.44Y-53.34
X218.44Y-55.88
X218.44Y-58.42
X218.44Y-60.96
X218.44Y-104.14
X218.44Y-106.68
X218.44Y-109.22
X218.44Y-114.38
X218.44Y-119.38
X220.98Y-53.34
X220.98Y-55.88
X220.98Y-58.42
X220.98Y-60.96
X220.98Y-66.04
X220.98Y-68.58
X220.98Y-81.28
X220.98Y-91.44
X220.98Y-104.14
X220.98Y-106.68
X220.98Y-111.76
X220.98Y-119.38
X223.52Y-58.42
X223.52Y-60.96
X223.52Y-66.04
X223.52Y-68.58
X223.52Y-81.28
X223.52Y-91.44
X223.52Y-104.14
X223.52Y-106.68
X223.52Y-109.22
X223.52Y-111.76
X223.52Y-119.38
X226.06Y-60.96
X226.06Y-63.5
X226.06Y-66.04
X226.06Y-104.14
X226.06Y-111.76
X226.06Y-119.38
X226.06Y-121.92
X228.52Y-109.22
X228.6Y-58.42
X228.6Y-60.96
X228.6Y-83.82
X228.6Y-88.9
X228.6Y-104.14
X228.6Y-111.76
X228.6Y-119.38
X228.6Y-121.92
X231.14Y-53.34
X231.14Y-55.88
X231.14Y-58.42
X231.14Y-60.96
X231.14Y-83.82
X231.14Y-88.9
X231.14Y-104.14
X231.14Y-106.68
X231.14Y-109.22
X231.14Y-114.3
X231.14Y-116.84
X231.22Y-119.38
X233.68Y-114.3
X233.68Y-116.84
X234.224Y-106.97
X234.224Y-109.22
X234.224Y-111.47
X234.26Y-58.71
X234.26Y-60.96
X234.26Y-63.21
X236.22Y-83.82
X236.22Y-99.06
X236.22Y-101.6
X236.22Y-119.38
X238.724Y-106.97
X238.724Y-111.47
X238.76Y-58.71
X238.76Y-63.21
X238.76Y-83.82
X243.85Y-76.27
X243.85Y-81.27
X246.38Y-60.96
X246.38Y-63.5
X246.39Y-76.19
X246.39Y-83.81
X248.92Y-60.96
X248.92Y-63.5
X248.93Y-76.19
X248.93Y-83.81
X248.93Y-86.35
X251.46Y-63.5
X251.46Y-71.12
X251.46Y-73.66
X251.46Y-109.22
X251.46Y-114.3
X251.46Y-116.84
X251.47Y-76.19
X251.47Y-83.81
X251.47Y-86.35
X251.75Y-54.185
X251.75Y-58.685
X254.0Y-58.685
X254.0Y-63.5
X254.0Y-109.22
X254.0Y-114.3
X254.0Y-116.84
X254.01Y-76.19
X254.01Y-83.81
X256.25Y-54.185
X256.25Y-58.685
X256.54Y-81.35
X256.54Y-86.35
X256.54Y-91.44
X256.54Y-109.22
X256.55Y-93.97
X256.55Y-96.51
X256.55Y-99.05
X259.08Y-78.74
X259.08Y-81.28
X259.08Y-91.44
X259.09Y-93.97
X259.17Y-76.19
X261.62Y-55.88
X261.62Y-58.42
X261.62Y-60.96
X261.62Y-86.35
X261.62Y-88.89
X261.62Y-106.68
X261.62Y-109.22
X261.62Y-111.76
X261.62Y-114.3
X261.62Y-116.84
X264.16Y-60.96
X264.16Y-78.82
X264.16Y-83.82
X264.17Y-76.19
X264.17Y-91.43
X264.17Y-93.97
X266.7Y-55.88
X266.7Y-58.42
X266.7Y-60.96
X266.7Y-78.74
X266.7Y-81.28
X266.71Y-91.43
X266.71Y-93.97
X269.24Y-55.88
X269.24Y-58.42
X269.24Y-60.96
X269.24Y-78.74
X269.24Y-81.28
X269.25Y-88.89
X269.25Y-91.43
X269.25Y-93.97
X271.79Y-86.35
X271.79Y-88.89
T6
X233.68Y-78.74
X233.68Y-81.28
X233.68Y-91.44
X233.68Y-93.98
T7
X180.34Y-55.88
X180.34Y-71.12
X182.88Y-127.0
X185.42Y-126.96
X185.42Y-129.54
X185.42Y-132.08
X185.42Y-134.62
X187.96Y-126.96
X187.96Y-129.54
X187.96Y-132.08
X187.96Y-134.62
X190.5Y-86.36
X190.5Y-91.44
X190.5Y-114.3
X190.5Y-119.38
X190.5Y-132.08
X190.5Y-134.62
X190.54Y-126.96
X190.54Y-129.54
X193.04Y-126.96
X193.04Y-129.54
X193.04Y-132.08
X193.04Y-134.62
X195.58Y-126.96
X195.58Y-129.54
X195.58Y-132.08
X195.58Y-134.62
X198.12Y-126.96
X198.12Y-129.54
X198.12Y-132.08
X198.12Y-134.62
X200.66Y-126.96
X200.66Y-129.54
X200.66Y-132.08
X200.66Y-134.62
X203.2Y-126.96
X203.2Y-129.54
X203.2Y-132.08
X203.2Y-134.62
X205.74Y-127.0
X208.28Y-55.881
X208.28Y-71.12
X208.28Y-76.2
X208.28Y-91.44
X208.28Y-104.14
X208.28Y-121.92
X210.82Y-43.18
X210.82Y-45.72
X210.82Y-48.26
X213.36Y-43.18
X213.36Y-45.72
X213.36Y-48.26
X213.36Y-55.88
X213.36Y-66.04
X213.36Y-104.14
X213.36Y-116.84
X215.9Y-43.18
X215.9Y-45.72
X215.9Y-48.26
X215.9Y-71.12
X215.9Y-78.74
X215.9Y-93.98
X215.959Y-86.36
X218.44Y-43.18
X218.44Y-45.72
X218.44Y-48.26
X220.98Y-43.18
X220.98Y-45.72
X220.98Y-48.26
X226.06Y-45.72
X231.14Y-43.18
X231.14Y-45.72
X231.14Y-48.26
X233.68Y-43.18
X233.68Y-45.72
X233.68Y-48.26
X236.22Y-43.18
X236.22Y-45.72
X236.22Y-48.26
X238.76Y-43.18
X238.76Y-45.72
X238.76Y-48.26
X238.76Y-88.9
X238.82Y-96.52
X241.3Y-43.18
X241.3Y-45.72
X241.3Y-48.26
X241.3Y-55.88
X241.3Y-66.04
X241.3Y-114.3
X241.301Y-104.14
X243.84Y-45.72
X246.38Y-43.18
X246.38Y-45.72
X246.38Y-48.26
X246.38Y-55.88
X246.38Y-71.12
X246.38Y-109.22
X246.38Y-119.38
X248.92Y-43.18
X248.92Y-45.72
X248.92Y-48.26
X251.46Y-43.18
X251.46Y-45.72
X251.46Y-48.26
X251.735Y-67.085
X254.0Y-43.18
X254.0Y-45.72
X254.0Y-48.26
X256.278Y-66.472
X256.54Y-43.18
X256.54Y-45.72
X256.54Y-48.26
X258.978Y-66.472
X259.08Y-88.9
X259.778Y-70.672
X261.62Y-45.72
X264.16Y-132.08
X266.7Y-71.12
X266.7Y-86.36
X266.7Y-111.76
X266.7Y-119.38
X266.71Y-76.19
X271.78Y-60.96
X271.78Y-71.12
X271.79Y-83.81
T8
X183.17Y-59.9
X183.17Y-67.1
X199.6Y-45.72
X206.03Y-80.22
X206.03Y-87.42
X206.03Y-108.185
X206.03Y-115.385
X206.8Y-45.72
X236.474Y-105.62
X236.474Y-112.82
X236.51Y-57.36
X236.51Y-64.56
X250.4Y-56.435
X257.6Y-56.435
T9
X188.06Y-45.645
X256.64Y-132.005
T10
X185.42Y-43.18
X185.42Y-48.26
X190.5Y-43.18
X190.5Y-48.26
X254.0Y-129.54
X254.0Y-134.62
X259.08Y-129.54
X259.08Y-134.62
T11
X180.34Y-44.45
X180.34Y-133.35
X271.78Y-44.45
X271.78Y-133.35
T12
X210.9Y-132.08
X210.9Y-134.58
X215.9Y-127.08
X220.9Y-132.08
X220.9Y-134.58
X236.38Y-132.08
X236.38Y-134.58
X241.38Y-127.08
X246.38Y-132.08
X246.38Y-134.58
T2
G00X210.9Y-126.58
M15
G01X210.9Y-127.58
M16
G05
G00X213.4Y-126.58
M15
G01X213.4Y-127.58
M16
G05
G00X215.4Y-132.08
M15
G01X216.4Y-132.08
M16
G05
G00X218.4Y-127.58
M15
G01X218.4Y-126.58
M16
G05
G00X220.9Y-127.58
M15
G01X220.9Y-126.58
M16
G05
G00X236.38Y-126.58
M15
G01X236.38Y-127.58
M16
G05
G00X238.88Y-126.58
M15
G01X238.88Y-127.58
M16
G05
G00X240.88Y-132.08
M15
G01X241.88Y-132.08
M16
G05
G00X243.88Y-127.58
M15
G01X243.88Y-126.58
M16
G05
G00X246.38Y-127.58
M15
G01X246.38Y-126.58
M16
G05
T0
M30
