M48
; DRILL file {KiCad 7.0.2-0} date 2024 July 29, Monday 15:30:39
; FORMAT={-:-/ absolute / metric / decimal}
; #@! TF.CreationDate,2024-07-29T15:30:39+09:00
; #@! TF.GenerationSoftware,Kicad,Pcbnew,7.0.2-0
; #@! TF.FileFunction,MixedPlating,1,2
FMAT,2
METRIC
; #@! TA.AperFunction,Plated,PTH,ViaDrill
T1C0.400
; #@! TA.AperFunction,Plated,PTH,ComponentDrill
T2C0.600
; #@! TA.AperFunction,Plated,PTH,ComponentDrill
T3C0.650
; #@! TA.AperFunction,Plated,PTH,ComponentDrill
T4C0.700
; #@! TA.AperFunction,Plated,PTH,ComponentDrill
T5C0.762
; #@! TA.AperFunction,Plated,PTH,ViaDrill
T6C0.800
; #@! TA.AperFunction,Plated,PTH,ComponentDrill
T7C0.800
; #@! TA.AperFunction,Plated,PTH,ComponentDrill
T8C0.900
; #@! TA.AperFunction,Plated,PTH,ComponentDrill
T9C1.000
; #@! TA.AperFunction,Plated,PTH,ComponentDrill
T10C1.200
; #@! TA.AperFunction,Plated,PTH,ComponentDrill
T11C1.500
; #@! TA.AperFunction,Plated,PTH,ComponentDrill
T12C1.600
; #@! TA.AperFunction,Plated,PTH,ComponentDrill
T13C2.200
; #@! TA.AperFunction,Plated,PTH,ComponentDrill
T14C3.000
; #@! TA.AperFunction,NonPlated,NPTH,ComponentDrill
T15C1.100
; #@! TA.AperFunction,NonPlated,NPTH,ComponentDrill
T16C1.200
%
G90
G05
T1
X180.34Y-53.34
X180.34Y-71.12
X180.34Y-86.36
X180.34Y-93.98
X180.34Y-127.0
X182.88Y-116.84
X185.42Y-71.12
X185.42Y-76.2
X185.42Y-104.14
X187.96Y-114.3
X191.77Y-81.28
X193.04Y-111.76
X193.04Y-116.84
X194.31Y-82.55
X195.58Y-63.5
X195.58Y-76.2
X196.85Y-87.63
X198.12Y-43.18
X198.12Y-48.26
X200.66Y-48.26
X200.66Y-60.96
X200.66Y-68.58
X200.66Y-88.788
X203.2Y-53.34
X208.28Y-53.34
X208.28Y-66.04
X213.36Y-53.34
X213.36Y-63.5
X213.36Y-71.12
X213.36Y-104.14
X213.42Y-76.2
X213.42Y-99.06
X215.9Y-114.3
X218.44Y-63.5
X218.44Y-71.12
X220.98Y-116.84
X223.52Y-53.34
X223.52Y-63.5
X223.52Y-99.06
X223.58Y-76.2
X228.6Y-55.88
X228.6Y-63.5
X228.6Y-71.12
X228.6Y-114.3
X231.14Y-127.0
X233.68Y-86.36
X238.76Y-76.2
X241.3Y-71.12
X243.84Y-93.98
X243.84Y-121.92
X243.85Y-78.73
X246.38Y-99.06
X248.92Y-104.14
X248.92Y-109.22
X248.92Y-119.38
X251.47Y-93.97
X255.27Y-109.22
X261.62Y-91.44
X261.62Y-104.14
X261.62Y-109.22
X264.16Y-76.2
X266.7Y-60.96
X269.24Y-114.3
X271.78Y-78.74
X271.79Y-93.97
T3
X227.87Y-134.62
X230.41Y-134.62
T4
X185.42Y-83.82
X185.42Y-86.36
X185.42Y-88.9
X246.39Y-91.43
X248.93Y-91.43
X251.47Y-91.43
T5
X195.58Y-43.18
X195.58Y-48.26
X203.2Y-43.18
X203.2Y-48.26
X205.74Y-43.18
X205.74Y-48.26
T6
X177.8Y-96.52
T7
X180.34Y-73.66
X180.34Y-76.2
X180.34Y-114.3
X180.92Y-61.25
X180.92Y-65.75
X182.88Y-93.98
X182.88Y-96.52
X182.88Y-111.76
X182.88Y-114.3
X183.08Y-106.68
X185.42Y-61.25
X185.42Y-63.5
X185.42Y-65.75
X185.42Y-93.98
X185.42Y-111.76
X185.42Y-114.3
X185.42Y-116.84
X187.96Y-63.5
X187.96Y-66.04
X187.96Y-83.82
X187.96Y-86.36
X187.96Y-88.9
X187.96Y-91.44
X187.96Y-93.98
X187.96Y-106.68
X187.96Y-119.38
X187.96Y-121.92
X188.16Y-78.74
X190.5Y-60.96
X190.5Y-83.82
X190.5Y-86.36
X190.5Y-111.76
X190.5Y-114.3
X190.5Y-116.84
X190.5Y-119.38
X190.5Y-121.92
X193.04Y-55.88
X193.04Y-58.42
X193.04Y-60.96
X193.04Y-66.04
X193.04Y-68.58
X193.04Y-78.74
X193.04Y-83.82
X193.04Y-86.36
X193.04Y-91.44
X193.04Y-93.98
X193.04Y-104.14
X193.04Y-106.68
X193.04Y-109.22
X195.58Y-53.34
X195.58Y-58.42
X195.58Y-60.96
X195.58Y-66.04
X195.58Y-68.58
X195.58Y-83.82
X195.58Y-91.44
X195.58Y-93.98
X195.58Y-99.06
X195.58Y-101.6
X195.58Y-104.14
X195.58Y-106.68
X195.58Y-109.22
X195.58Y-111.76
X195.58Y-114.3
X195.58Y-116.84
X195.58Y-119.38
X195.58Y-121.92
X195.58Y-124.46
X198.12Y-53.34
X198.12Y-60.96
X198.12Y-63.5
X198.12Y-66.04
X198.12Y-78.74
X198.12Y-81.28
X198.12Y-83.82
X198.12Y-86.36
X198.12Y-88.9
X198.12Y-91.44
X198.12Y-104.14
X198.12Y-106.68
X198.12Y-109.22
X198.12Y-111.76
X198.41Y-115.86
X198.41Y-118.11
X198.41Y-120.36
X200.66Y-53.34
X200.66Y-55.88
X200.66Y-58.42
X200.66Y-76.2
X200.66Y-78.74
X200.66Y-81.28
X200.66Y-83.708
X200.66Y-86.248
X200.986Y-107.006
X200.986Y-109.256
X200.986Y-111.506
X202.91Y-115.86
X202.91Y-120.36
X203.2Y-58.42
X203.2Y-60.96
X203.2Y-63.5
X203.2Y-66.04
X203.2Y-76.2
X203.2Y-78.74
X203.2Y-81.28
X203.2Y-93.98
X203.2Y-96.52
X203.78Y-83.998
X203.78Y-86.248
X203.78Y-88.498
X205.486Y-107.006
X205.486Y-111.506
X205.74Y-66.04
X205.74Y-76.2
X205.74Y-78.74
X208.28Y-60.96
X208.28Y-63.5
X208.28Y-83.998
X208.28Y-88.498
X210.82Y-99.06
X210.82Y-101.6
X213.36Y-109.22
X213.36Y-111.76
X213.36Y-114.3
X213.36Y-119.38
X213.36Y-121.92
X215.9Y-58.42
X215.9Y-60.96
X215.9Y-63.5
X215.9Y-66.04
X215.9Y-109.22
X215.9Y-111.84
X215.9Y-116.84
X215.9Y-119.38
X215.9Y-121.92
X217.46Y-43.76
X217.46Y-48.26
X218.44Y-53.34
X218.44Y-55.88
X218.44Y-58.42
X218.44Y-60.96
X218.44Y-106.68
X218.44Y-109.22
X218.44Y-114.38
X218.44Y-119.38
X219.71Y-48.26
X220.98Y-53.34
X220.98Y-55.88
X220.98Y-58.42
X220.98Y-60.96
X220.98Y-66.04
X220.98Y-68.58
X220.98Y-76.2
X220.98Y-78.74
X220.98Y-96.52
X220.98Y-99.06
X220.98Y-106.68
X220.98Y-109.22
X220.99Y-111.76
X220.99Y-119.38
X221.96Y-43.76
X221.96Y-48.26
X223.52Y-58.42
X223.52Y-60.96
X223.52Y-66.04
X223.52Y-68.58
X223.52Y-104.14
X223.52Y-106.68
X223.53Y-111.76
X223.53Y-119.38
X226.06Y-60.96
X226.06Y-63.5
X226.06Y-66.04
X226.06Y-68.58
X226.06Y-71.12
X226.06Y-81.28
X226.06Y-93.98
X226.06Y-104.14
X226.06Y-106.68
X226.06Y-109.22
X226.06Y-121.92
X226.07Y-111.76
X226.07Y-119.38
X228.6Y-58.42
X228.6Y-60.96
X228.6Y-81.28
X228.6Y-93.98
X228.6Y-104.14
X228.6Y-121.92
X228.61Y-111.76
X228.61Y-119.38
X231.06Y-109.22
X231.14Y-55.88
X231.14Y-58.42
X231.14Y-60.96
X231.14Y-63.5
X231.14Y-104.14
X231.14Y-114.3
X231.14Y-116.84
X231.18Y-119.38
X233.68Y-53.34
X233.68Y-55.88
X233.68Y-71.12
X233.68Y-73.66
X233.68Y-104.14
X233.68Y-106.68
X233.68Y-109.22
X233.68Y-114.3
X233.68Y-116.84
X234.26Y-58.71
X234.26Y-60.96
X234.26Y-63.21
X236.18Y-119.38
X236.22Y-83.82
X236.22Y-99.06
X236.22Y-101.6
X236.22Y-114.3
X236.22Y-116.84
X236.764Y-106.97
X236.764Y-109.22
X236.764Y-111.47
X238.76Y-58.71
X238.76Y-63.21
X238.76Y-83.82
X238.76Y-116.84
X241.264Y-106.97
X241.264Y-111.47
X241.3Y-116.84
X243.85Y-76.27
X243.85Y-81.27
X246.39Y-76.19
X246.39Y-83.81
X246.67Y-55.11
X246.67Y-59.61
X248.93Y-76.19
X248.93Y-83.81
X248.93Y-86.35
X251.17Y-55.11
X251.17Y-57.36
X251.17Y-59.61
X251.46Y-71.12
X251.46Y-73.66
X251.47Y-76.19
X251.47Y-83.81
X251.47Y-86.35
X254.0Y-55.88
X254.0Y-58.42
X254.0Y-60.96
X254.0Y-63.5
X254.0Y-106.68
X254.0Y-111.76
X254.0Y-114.3
X254.0Y-121.92
X254.01Y-76.19
X254.01Y-83.81
X256.54Y-55.88
X256.54Y-58.42
X256.54Y-60.96
X256.54Y-63.5
X256.54Y-76.2
X256.54Y-81.35
X256.54Y-86.35
X256.54Y-91.44
X256.54Y-106.68
X256.54Y-111.76
X256.54Y-114.3
X256.54Y-121.92
X256.55Y-93.97
X256.55Y-96.51
X256.55Y-99.05
X259.08Y-63.5
X259.08Y-76.2
X259.08Y-78.74
X259.08Y-81.28
X259.08Y-91.44
X259.08Y-106.68
X259.08Y-119.38
X259.08Y-121.92
X259.09Y-93.97
X259.37Y-55.11
X259.37Y-59.61
X261.62Y-63.5
X261.62Y-76.19
X261.62Y-86.35
X261.62Y-88.89
X261.62Y-119.38
X261.62Y-121.92
X263.87Y-55.11
X263.87Y-57.36
X263.87Y-59.61
X264.16Y-63.5
X264.16Y-78.82
X264.16Y-83.82
X264.16Y-104.14
X264.16Y-106.68
X264.16Y-109.22
X264.16Y-111.76
X264.16Y-114.3
X264.16Y-119.38
X264.16Y-121.92
X264.17Y-91.43
X264.17Y-93.97
X266.62Y-76.19
X266.7Y-55.88
X266.7Y-58.42
X266.7Y-63.5
X266.7Y-66.04
X266.7Y-68.58
X266.7Y-78.74
X266.7Y-81.28
X266.7Y-119.38
X266.7Y-121.92
X266.71Y-91.43
X266.71Y-93.97
X269.24Y-55.88
X269.24Y-58.42
X269.24Y-60.96
X269.24Y-63.5
X269.24Y-66.04
X269.24Y-68.58
X269.24Y-78.74
X269.24Y-81.28
X269.25Y-88.89
X269.25Y-91.43
X269.25Y-93.97
X271.78Y-60.96
X271.78Y-63.5
X271.78Y-66.04
X271.78Y-68.58
X271.79Y-86.35
X271.79Y-88.89
T8
X233.68Y-78.74
X233.68Y-81.28
X233.68Y-91.44
X233.68Y-93.98
T9
X177.8Y-127.0
X180.34Y-55.88
X180.34Y-99.06
X182.88Y-127.0
X185.42Y-55.88
X185.42Y-126.96
X185.42Y-129.54
X185.42Y-132.08
X185.42Y-134.62
X187.96Y-126.96
X187.96Y-129.54
X187.96Y-132.08
X187.96Y-134.62
X190.5Y-88.9
X190.5Y-93.98
X190.5Y-132.08
X190.5Y-134.62
X190.54Y-126.96
X190.54Y-129.54
X193.04Y-45.72
X193.04Y-126.96
X193.04Y-129.54
X193.04Y-132.08
X193.04Y-134.62
X195.58Y-126.96
X195.58Y-129.54
X195.58Y-132.08
X195.58Y-134.62
X198.12Y-126.96
X198.12Y-129.54
X198.12Y-132.08
X198.12Y-134.62
X200.66Y-126.96
X200.66Y-129.54
X200.66Y-132.08
X200.66Y-134.62
X203.2Y-126.96
X203.2Y-129.54
X203.2Y-132.08
X203.2Y-134.62
X205.74Y-127.0
X208.28Y-43.18
X208.28Y-45.72
X208.28Y-48.26
X208.28Y-55.881
X208.28Y-71.12
X208.28Y-76.2
X208.28Y-93.868
X208.28Y-104.14
X208.28Y-114.3
X208.28Y-121.92
X208.28Y-129.54
X208.28Y-132.08
X210.82Y-43.18
X210.82Y-45.72
X210.82Y-48.26
X213.36Y-43.18
X213.36Y-45.72
X213.36Y-48.26
X213.36Y-55.88
X213.36Y-106.68
X213.36Y-116.84
X215.9Y-71.12
X215.9Y-81.28
X215.9Y-91.44
X215.959Y-86.36
X220.98Y-71.12
X226.06Y-43.18
X226.06Y-48.26
X226.06Y-86.36
X226.06Y-127.0
X231.14Y-43.18
X231.14Y-45.72
X231.14Y-48.26
X233.68Y-43.18
X233.68Y-45.72
X233.68Y-48.26
X233.68Y-127.0
X236.22Y-43.18
X236.22Y-45.72
X236.22Y-48.26
X238.76Y-43.18
X238.76Y-45.72
X238.76Y-48.26
X238.76Y-88.9
X241.3Y-43.18
X241.3Y-45.72
X241.3Y-48.26
X241.3Y-55.88
X241.3Y-66.04
X243.84Y-45.72
X243.84Y-114.3
X243.841Y-104.14
X246.38Y-43.18
X246.38Y-45.72
X246.38Y-48.26
X246.38Y-66.04
X246.38Y-71.12
X248.92Y-43.18
X248.92Y-45.72
X248.92Y-48.26
X248.92Y-106.68
X248.92Y-116.84
X248.92Y-121.92
X251.46Y-43.18
X251.46Y-45.72
X251.46Y-48.26
X251.735Y-67.085
X254.0Y-43.18
X254.0Y-45.72
X254.0Y-48.26
X254.0Y-88.9
X254.0Y-126.365
X254.0Y-128.905
X254.0Y-131.445
X254.0Y-133.985
X254.0Y-136.525
X256.278Y-66.472
X256.54Y-43.18
X256.54Y-45.72
X256.54Y-48.26
X258.978Y-66.472
X259.778Y-70.672
X260.35Y-127.0
X261.62Y-43.18
X266.7Y-71.12
X266.7Y-86.36
X266.7Y-127.0
X269.24Y-76.19
X269.24Y-106.68
X269.24Y-111.76
X271.78Y-53.34
X271.78Y-71.12
X271.78Y-99.06
X271.78Y-127.0
X271.79Y-83.81
T10
X180.34Y-116.38
X180.34Y-122.38
X183.17Y-59.9
X183.17Y-67.1
X200.66Y-114.51
X200.66Y-121.71
X203.236Y-105.656
X203.236Y-112.856
X206.03Y-82.648
X206.03Y-89.848
X216.11Y-46.01
X223.31Y-46.01
X236.51Y-57.36
X236.51Y-64.56
X239.014Y-105.62
X239.014Y-112.82
X248.92Y-53.76
X248.92Y-60.96
X261.62Y-53.76
X261.62Y-60.96
T11
X188.06Y-45.645
X260.35Y-132.081
T12
X185.42Y-43.18
X185.42Y-48.26
X190.5Y-43.18
X190.5Y-48.26
X257.71Y-129.616
X257.71Y-134.696
X262.79Y-129.616
X262.79Y-134.696
T13
X271.78Y-116.84
X271.78Y-121.92
T14
X180.34Y-45.085
X180.34Y-133.985
X271.272Y-45.085
X271.272Y-133.985
T15
X236.3Y-130.81
X241.3Y-130.81
T16
X210.9Y-132.08
X210.9Y-134.58
X215.9Y-127.08
X220.9Y-132.08
X220.9Y-134.58
X248.1Y-130.175
X248.1Y-136.975
T2
G00X210.9Y-126.68
M15
G01X210.9Y-127.48
M16
G05
G00X213.4Y-126.68
M15
G01X213.4Y-127.48
M16
G05
G00X215.5Y-132.08
M15
G01X216.3Y-132.08
M16
G05
G00X218.4Y-127.48
M15
G01X218.4Y-126.68
M16
G05
G00X220.9Y-127.48
M15
G01X220.9Y-126.68
M16
G05
G00X236.05Y-134.71
M15
G01X236.05Y-133.91
M16
G05
G00X236.5Y-127.21
M15
G01X236.5Y-126.41
M16
G05
G00X241.1Y-127.21
M15
G01X241.1Y-126.41
M16
G05
G00X241.55Y-134.71
M15
G01X241.55Y-133.91
M16
G05
G00X245.8Y-128.575
M15
G01X245.8Y-127.775
M16
G05
G00X245.8Y-132.575
M15
G01X245.8Y-131.775
M16
G05
G00X245.8Y-135.575
M15
G01X245.8Y-134.775
M16
G05
G00X250.4Y-127.075
M15
G01X250.4Y-126.275
M16
G05
T0
M30
