%TF.GenerationSoftware,KiCad,Pcbnew,7.0.2-0*%
%TF.CreationDate,2024-06-16T14:46:37+09:00*%
%TF.ProjectId,am-pcb1,616d2d70-6362-4312-9e6b-696361645f70,rev?*%
%TF.SameCoordinates,Original*%
%TF.FileFunction,Legend,Bot*%
%TF.FilePolarity,Positive*%
%FSLAX46Y46*%
G04 Gerber Fmt 4.6, Leading zero omitted, Abs format (unit mm)*
G04 Created by KiCad (PCBNEW 7.0.2-0) date 2024-06-16 14:46:37*
%MOMM*%
%LPD*%
G01*
G04 APERTURE LIST*
%ADD10C,0.150000*%
G04 APERTURE END LIST*
D10*
X242316000Y-105156000D02*
X242316000Y-105156000D01*
X242740264Y-105580264D02*
X242740264Y-105580264D01*
X243164528Y-106004528D02*
X243164528Y-106004528D01*
X243588792Y-106428792D02*
X243588792Y-106428792D01*
X244013056Y-106853056D02*
X244013056Y-106853056D01*
X244437320Y-107277320D02*
X244437320Y-107277320D01*
X244861584Y-107701584D02*
X244861584Y-107701584D01*
X245285848Y-108125848D02*
X245285848Y-108125848D01*
X209486500Y-75374500D02*
X209486500Y-75374500D01*
X209987603Y-75044506D02*
X209987603Y-75044506D01*
X210488705Y-74714511D02*
X210488705Y-74714511D01*
X210989808Y-74384517D02*
X210989808Y-74384517D01*
X211490910Y-74054523D02*
X211490910Y-74054523D01*
X211992013Y-73724528D02*
X211992013Y-73724528D01*
X212493115Y-73394534D02*
X212493115Y-73394534D01*
X212994218Y-73064540D02*
X212994218Y-73064540D01*
X213495320Y-72734545D02*
X213495320Y-72734545D01*
X213996423Y-72404551D02*
X213996423Y-72404551D01*
X214497525Y-72074557D02*
X214497525Y-72074557D01*
X209550000Y-104140000D02*
X209550000Y-104140000D01*
X210150000Y-104140000D02*
X210150000Y-104140000D01*
X210750000Y-104140000D02*
X210750000Y-104140000D01*
X211350000Y-104140000D02*
X211350000Y-104140000D01*
X211950000Y-104140000D02*
X211950000Y-104140000D01*
X273050000Y-62230000D02*
X273050000Y-62230000D01*
X273050000Y-62830000D02*
X273050000Y-62830000D01*
X273050000Y-63430000D02*
X273050000Y-63430000D01*
X273050000Y-64030000D02*
X273050000Y-64030000D01*
X273050000Y-64630000D02*
X273050000Y-64630000D01*
X273050000Y-65230000D02*
X273050000Y-65230000D01*
X273050000Y-65830000D02*
X273050000Y-65830000D01*
X273050000Y-66430000D02*
X273050000Y-66430000D01*
X273050000Y-67030000D02*
X273050000Y-67030000D01*
X273050000Y-67630000D02*
X273050000Y-67630000D01*
X273050000Y-68230000D02*
X273050000Y-68230000D01*
X273050000Y-68830000D02*
X273050000Y-68830000D01*
X273050000Y-69430000D02*
X273050000Y-69430000D01*
X273050000Y-70030000D02*
X273050000Y-70030000D01*
X273050000Y-70630000D02*
X273050000Y-70630000D01*
X273050000Y-71230000D02*
X273050000Y-71230000D01*
X273050000Y-71830000D02*
X273050000Y-71830000D01*
X273050000Y-72430000D02*
X273050000Y-72430000D01*
X273050000Y-73030000D02*
X273050000Y-73030000D01*
X273050000Y-73630000D02*
X273050000Y-73630000D01*
X273050000Y-74230000D02*
X273050000Y-74230000D01*
X273050000Y-74830000D02*
X273050000Y-74830000D01*
X273050000Y-75430000D02*
X273050000Y-75430000D01*
X273050000Y-76030000D02*
X273050000Y-76030000D01*
X273050000Y-76630000D02*
X273050000Y-76630000D01*
X273050000Y-77230000D02*
X273050000Y-77230000D01*
X273050000Y-77830000D02*
X273050000Y-77830000D01*
X273050000Y-78430000D02*
X273050000Y-78430000D01*
X273050000Y-79030000D02*
X273050000Y-79030000D01*
X273050000Y-79630000D02*
X273050000Y-79630000D01*
X273050000Y-80230000D02*
X273050000Y-80230000D01*
X273050000Y-80830000D02*
X273050000Y-80830000D01*
X273050000Y-81430000D02*
X273050000Y-81430000D01*
X273050000Y-82030000D02*
X273050000Y-82030000D01*
X209550000Y-55880000D02*
X209550000Y-55880000D01*
X210150000Y-55880000D02*
X210150000Y-55880000D01*
X210750000Y-55880000D02*
X210750000Y-55880000D01*
X211350000Y-55880000D02*
X211350000Y-55880000D01*
X211950000Y-55880000D02*
X211950000Y-55880000D01*
X242697000Y-55880000D02*
X242697000Y-55880000D01*
X243297000Y-55880000D02*
X243297000Y-55880000D01*
X243897000Y-55880000D02*
X243897000Y-55880000D01*
X244497000Y-55880000D02*
X244497000Y-55880000D01*
X245097000Y-55880000D02*
X245097000Y-55880000D01*
X240284000Y-88900000D02*
X240284000Y-88900000D01*
X240884000Y-88900000D02*
X240884000Y-88900000D01*
X241484000Y-88900000D02*
X241484000Y-88900000D01*
X242084000Y-88900000D02*
X242084000Y-88900000D01*
X242684000Y-88900000D02*
X242684000Y-88900000D01*
X243284000Y-88900000D02*
X243284000Y-88900000D01*
X243884000Y-88900000D02*
X243884000Y-88900000D01*
X244484000Y-88900000D02*
X244484000Y-88900000D01*
X245084000Y-88900000D02*
X245084000Y-88900000D01*
X245684000Y-88900000D02*
X245684000Y-88900000D01*
X246284000Y-88900000D02*
X246284000Y-88900000D01*
X246884000Y-88900000D02*
X246884000Y-88900000D01*
X247484000Y-88900000D02*
X247484000Y-88900000D01*
X248084000Y-88900000D02*
X248084000Y-88900000D01*
X248684000Y-88900000D02*
X248684000Y-88900000D01*
X249284000Y-88900000D02*
X249284000Y-88900000D01*
X249884000Y-88900000D02*
X249884000Y-88900000D01*
X250484000Y-88900000D02*
X250484000Y-88900000D01*
X251084000Y-88900000D02*
X251084000Y-88900000D01*
X251684000Y-88900000D02*
X251684000Y-88900000D01*
X252284000Y-88900000D02*
X252284000Y-88900000D01*
X252884000Y-88900000D02*
X252884000Y-88900000D01*
X253484000Y-88900000D02*
X253484000Y-88900000D01*
X254084000Y-88900000D02*
X254084000Y-88900000D01*
X254684000Y-88900000D02*
X254684000Y-88900000D01*
X255284000Y-88900000D02*
X255284000Y-88900000D01*
X255884000Y-88900000D02*
X255884000Y-88900000D01*
X256484000Y-88900000D02*
X256484000Y-88900000D01*
X257084000Y-88900000D02*
X257084000Y-88900000D01*
X257684000Y-88900000D02*
X257684000Y-88900000D01*
X213233095Y-85920238D02*
X213328333Y-85872619D01*
X213328333Y-85872619D02*
X213471190Y-85872619D01*
X213471190Y-85872619D02*
X213614047Y-85920238D01*
X213614047Y-85920238D02*
X213709285Y-86015476D01*
X213709285Y-86015476D02*
X213756904Y-86110714D01*
X213756904Y-86110714D02*
X213804523Y-86301190D01*
X213804523Y-86301190D02*
X213804523Y-86444047D01*
X213804523Y-86444047D02*
X213756904Y-86634523D01*
X213756904Y-86634523D02*
X213709285Y-86729761D01*
X213709285Y-86729761D02*
X213614047Y-86825000D01*
X213614047Y-86825000D02*
X213471190Y-86872619D01*
X213471190Y-86872619D02*
X213375952Y-86872619D01*
X213375952Y-86872619D02*
X213233095Y-86825000D01*
X213233095Y-86825000D02*
X213185476Y-86777380D01*
X213185476Y-86777380D02*
X213185476Y-86444047D01*
X213185476Y-86444047D02*
X213375952Y-86444047D01*
X212756904Y-86872619D02*
X212756904Y-85872619D01*
X212756904Y-85872619D02*
X212185476Y-86872619D01*
X212185476Y-86872619D02*
X212185476Y-85872619D01*
X211709285Y-86872619D02*
X211709285Y-85872619D01*
X211709285Y-85872619D02*
X211471190Y-85872619D01*
X211471190Y-85872619D02*
X211328333Y-85920238D01*
X211328333Y-85920238D02*
X211233095Y-86015476D01*
X211233095Y-86015476D02*
X211185476Y-86110714D01*
X211185476Y-86110714D02*
X211137857Y-86301190D01*
X211137857Y-86301190D02*
X211137857Y-86444047D01*
X211137857Y-86444047D02*
X211185476Y-86634523D01*
X211185476Y-86634523D02*
X211233095Y-86729761D01*
X211233095Y-86729761D02*
X211328333Y-86825000D01*
X211328333Y-86825000D02*
X211471190Y-86872619D01*
X211471190Y-86872619D02*
X211709285Y-86872619D01*
X200421904Y-67187619D02*
X200421904Y-66187619D01*
X200421904Y-66187619D02*
X200183809Y-66187619D01*
X200183809Y-66187619D02*
X200040952Y-66235238D01*
X200040952Y-66235238D02*
X199945714Y-66330476D01*
X199945714Y-66330476D02*
X199898095Y-66425714D01*
X199898095Y-66425714D02*
X199850476Y-66616190D01*
X199850476Y-66616190D02*
X199850476Y-66759047D01*
X199850476Y-66759047D02*
X199898095Y-66949523D01*
X199898095Y-66949523D02*
X199945714Y-67044761D01*
X199945714Y-67044761D02*
X200040952Y-67140000D01*
X200040952Y-67140000D02*
X200183809Y-67187619D01*
X200183809Y-67187619D02*
X200421904Y-67187619D01*
X249316904Y-94431428D02*
X249316904Y-92931428D01*
X249316904Y-92931428D02*
X249078809Y-92931428D01*
X249078809Y-92931428D02*
X248935952Y-93002857D01*
X248935952Y-93002857D02*
X248840714Y-93145714D01*
X248840714Y-93145714D02*
X248793095Y-93288571D01*
X248793095Y-93288571D02*
X248745476Y-93574285D01*
X248745476Y-93574285D02*
X248745476Y-93788571D01*
X248745476Y-93788571D02*
X248793095Y-94074285D01*
X248793095Y-94074285D02*
X248840714Y-94217142D01*
X248840714Y-94217142D02*
X248935952Y-94360000D01*
X248935952Y-94360000D02*
X249078809Y-94431428D01*
X249078809Y-94431428D02*
X249316904Y-94431428D01*
X248316904Y-93645714D02*
X247983571Y-93645714D01*
X247840714Y-94431428D02*
X248316904Y-94431428D01*
X248316904Y-94431428D02*
X248316904Y-92931428D01*
X248316904Y-92931428D02*
X247840714Y-92931428D01*
X247554999Y-92931428D02*
X246983571Y-92931428D01*
X247269285Y-94431428D02*
X247269285Y-92931428D01*
X199850476Y-95066428D02*
X200183809Y-94352142D01*
X200421904Y-95066428D02*
X200421904Y-93566428D01*
X200421904Y-93566428D02*
X200040952Y-93566428D01*
X200040952Y-93566428D02*
X199945714Y-93637857D01*
X199945714Y-93637857D02*
X199898095Y-93709285D01*
X199898095Y-93709285D02*
X199850476Y-93852142D01*
X199850476Y-93852142D02*
X199850476Y-94066428D01*
X199850476Y-94066428D02*
X199898095Y-94209285D01*
X199898095Y-94209285D02*
X199945714Y-94280714D01*
X199945714Y-94280714D02*
X200040952Y-94352142D01*
X200040952Y-94352142D02*
X200421904Y-94352142D01*
X198945714Y-95066428D02*
X199421904Y-95066428D01*
X199421904Y-95066428D02*
X199421904Y-93566428D01*
X198421904Y-93566428D02*
X198231428Y-93566428D01*
X198231428Y-93566428D02*
X198136190Y-93637857D01*
X198136190Y-93637857D02*
X198040952Y-93780714D01*
X198040952Y-93780714D02*
X197993333Y-94066428D01*
X197993333Y-94066428D02*
X197993333Y-94566428D01*
X197993333Y-94566428D02*
X198040952Y-94852142D01*
X198040952Y-94852142D02*
X198136190Y-94995000D01*
X198136190Y-94995000D02*
X198231428Y-95066428D01*
X198231428Y-95066428D02*
X198421904Y-95066428D01*
X198421904Y-95066428D02*
X198517142Y-94995000D01*
X198517142Y-94995000D02*
X198612380Y-94852142D01*
X198612380Y-94852142D02*
X198659999Y-94566428D01*
X198659999Y-94566428D02*
X198659999Y-94066428D01*
X198659999Y-94066428D02*
X198612380Y-93780714D01*
X198612380Y-93780714D02*
X198517142Y-93637857D01*
X198517142Y-93637857D02*
X198421904Y-93566428D01*
X199072571Y-110605809D02*
X198929714Y-110653428D01*
X198929714Y-110653428D02*
X198882095Y-110701047D01*
X198882095Y-110701047D02*
X198834476Y-110796285D01*
X198834476Y-110796285D02*
X198834476Y-110939142D01*
X198834476Y-110939142D02*
X198882095Y-111034380D01*
X198882095Y-111034380D02*
X198929714Y-111082000D01*
X198929714Y-111082000D02*
X199024952Y-111129619D01*
X199024952Y-111129619D02*
X199405904Y-111129619D01*
X199405904Y-111129619D02*
X199405904Y-110129619D01*
X199405904Y-110129619D02*
X199072571Y-110129619D01*
X199072571Y-110129619D02*
X198977333Y-110177238D01*
X198977333Y-110177238D02*
X198929714Y-110224857D01*
X198929714Y-110224857D02*
X198882095Y-110320095D01*
X198882095Y-110320095D02*
X198882095Y-110415333D01*
X198882095Y-110415333D02*
X198929714Y-110510571D01*
X198929714Y-110510571D02*
X198977333Y-110558190D01*
X198977333Y-110558190D02*
X199072571Y-110605809D01*
X199072571Y-110605809D02*
X199405904Y-110605809D01*
X200469523Y-71777857D02*
X199993333Y-71777857D01*
X200564761Y-72206428D02*
X200231428Y-70706428D01*
X200231428Y-70706428D02*
X199898095Y-72206428D01*
X199564761Y-72206428D02*
X199564761Y-70706428D01*
X199564761Y-70706428D02*
X199231428Y-71777857D01*
X199231428Y-71777857D02*
X198898095Y-70706428D01*
X198898095Y-70706428D02*
X198898095Y-72206428D01*
X198421904Y-72206428D02*
X198421904Y-70706428D01*
X198421904Y-70706428D02*
X198040952Y-70706428D01*
X198040952Y-70706428D02*
X197945714Y-70777857D01*
X197945714Y-70777857D02*
X197898095Y-70849285D01*
X197898095Y-70849285D02*
X197850476Y-70992142D01*
X197850476Y-70992142D02*
X197850476Y-71206428D01*
X197850476Y-71206428D02*
X197898095Y-71349285D01*
X197898095Y-71349285D02*
X197945714Y-71420714D01*
X197945714Y-71420714D02*
X198040952Y-71492142D01*
X198040952Y-71492142D02*
X198421904Y-71492142D01*
X241887428Y-105557619D02*
X241696952Y-105557619D01*
X241696952Y-105557619D02*
X241601714Y-105605238D01*
X241601714Y-105605238D02*
X241506476Y-105700476D01*
X241506476Y-105700476D02*
X241458857Y-105890952D01*
X241458857Y-105890952D02*
X241458857Y-106224285D01*
X241458857Y-106224285D02*
X241506476Y-106414761D01*
X241506476Y-106414761D02*
X241601714Y-106510000D01*
X241601714Y-106510000D02*
X241696952Y-106557619D01*
X241696952Y-106557619D02*
X241887428Y-106557619D01*
X241887428Y-106557619D02*
X241982666Y-106510000D01*
X241982666Y-106510000D02*
X242077904Y-106414761D01*
X242077904Y-106414761D02*
X242125523Y-106224285D01*
X242125523Y-106224285D02*
X242125523Y-105890952D01*
X242125523Y-105890952D02*
X242077904Y-105700476D01*
X242077904Y-105700476D02*
X241982666Y-105605238D01*
X241982666Y-105605238D02*
X241887428Y-105557619D01*
X241030285Y-105557619D02*
X241030285Y-106367142D01*
X241030285Y-106367142D02*
X240982666Y-106462380D01*
X240982666Y-106462380D02*
X240935047Y-106510000D01*
X240935047Y-106510000D02*
X240839809Y-106557619D01*
X240839809Y-106557619D02*
X240649333Y-106557619D01*
X240649333Y-106557619D02*
X240554095Y-106510000D01*
X240554095Y-106510000D02*
X240506476Y-106462380D01*
X240506476Y-106462380D02*
X240458857Y-106367142D01*
X240458857Y-106367142D02*
X240458857Y-105557619D01*
X240125523Y-105557619D02*
X239554095Y-105557619D01*
X239839809Y-106557619D02*
X239839809Y-105557619D01*
X213899761Y-93492619D02*
X213566428Y-94492619D01*
X213566428Y-94492619D02*
X213233095Y-93492619D01*
X213042618Y-93492619D02*
X212471190Y-93492619D01*
X212756904Y-94492619D02*
X212756904Y-93492619D01*
X212233094Y-93492619D02*
X211566428Y-94492619D01*
X211566428Y-93492619D02*
X212233094Y-94492619D01*
X226758571Y-102858809D02*
X226615714Y-102906428D01*
X226615714Y-102906428D02*
X226568095Y-102954047D01*
X226568095Y-102954047D02*
X226520476Y-103049285D01*
X226520476Y-103049285D02*
X226520476Y-103192142D01*
X226520476Y-103192142D02*
X226568095Y-103287380D01*
X226568095Y-103287380D02*
X226615714Y-103335000D01*
X226615714Y-103335000D02*
X226710952Y-103382619D01*
X226710952Y-103382619D02*
X227091904Y-103382619D01*
X227091904Y-103382619D02*
X227091904Y-102382619D01*
X227091904Y-102382619D02*
X226758571Y-102382619D01*
X226758571Y-102382619D02*
X226663333Y-102430238D01*
X226663333Y-102430238D02*
X226615714Y-102477857D01*
X226615714Y-102477857D02*
X226568095Y-102573095D01*
X226568095Y-102573095D02*
X226568095Y-102668333D01*
X226568095Y-102668333D02*
X226615714Y-102763571D01*
X226615714Y-102763571D02*
X226663333Y-102811190D01*
X226663333Y-102811190D02*
X226758571Y-102858809D01*
X226758571Y-102858809D02*
X227091904Y-102858809D01*
X213899761Y-78252619D02*
X213566428Y-79252619D01*
X213566428Y-79252619D02*
X213233095Y-78252619D01*
X212328333Y-79252619D02*
X212661666Y-78776428D01*
X212899761Y-79252619D02*
X212899761Y-78252619D01*
X212899761Y-78252619D02*
X212518809Y-78252619D01*
X212518809Y-78252619D02*
X212423571Y-78300238D01*
X212423571Y-78300238D02*
X212375952Y-78347857D01*
X212375952Y-78347857D02*
X212328333Y-78443095D01*
X212328333Y-78443095D02*
X212328333Y-78585952D01*
X212328333Y-78585952D02*
X212375952Y-78681190D01*
X212375952Y-78681190D02*
X212423571Y-78728809D01*
X212423571Y-78728809D02*
X212518809Y-78776428D01*
X212518809Y-78776428D02*
X212899761Y-78776428D01*
X211994999Y-78252619D02*
X211328333Y-79252619D01*
X211328333Y-78252619D02*
X211994999Y-79252619D01*
X200564761Y-121506428D02*
X199993333Y-121506428D01*
X200279047Y-123006428D02*
X200279047Y-121506428D01*
X199183809Y-123006428D02*
X199659999Y-123006428D01*
X199659999Y-123006428D02*
X199659999Y-121506428D01*
X198659999Y-121506428D02*
X198469523Y-121506428D01*
X198469523Y-121506428D02*
X198374285Y-121577857D01*
X198374285Y-121577857D02*
X198279047Y-121720714D01*
X198279047Y-121720714D02*
X198231428Y-122006428D01*
X198231428Y-122006428D02*
X198231428Y-122506428D01*
X198231428Y-122506428D02*
X198279047Y-122792142D01*
X198279047Y-122792142D02*
X198374285Y-122935000D01*
X198374285Y-122935000D02*
X198469523Y-123006428D01*
X198469523Y-123006428D02*
X198659999Y-123006428D01*
X198659999Y-123006428D02*
X198755237Y-122935000D01*
X198755237Y-122935000D02*
X198850475Y-122792142D01*
X198850475Y-122792142D02*
X198898094Y-122506428D01*
X198898094Y-122506428D02*
X198898094Y-122006428D01*
X198898094Y-122006428D02*
X198850475Y-121720714D01*
X198850475Y-121720714D02*
X198755237Y-121577857D01*
X198755237Y-121577857D02*
X198659999Y-121506428D01*
X270557571Y-95600380D02*
X270748047Y-95600380D01*
X270748047Y-95600380D02*
X270843285Y-95552761D01*
X270843285Y-95552761D02*
X270938523Y-95457523D01*
X270938523Y-95457523D02*
X270986142Y-95267047D01*
X270986142Y-95267047D02*
X270986142Y-94933714D01*
X270986142Y-94933714D02*
X270938523Y-94743238D01*
X270938523Y-94743238D02*
X270843285Y-94648000D01*
X270843285Y-94648000D02*
X270748047Y-94600380D01*
X270748047Y-94600380D02*
X270557571Y-94600380D01*
X270557571Y-94600380D02*
X270462333Y-94648000D01*
X270462333Y-94648000D02*
X270367095Y-94743238D01*
X270367095Y-94743238D02*
X270319476Y-94933714D01*
X270319476Y-94933714D02*
X270319476Y-95267047D01*
X270319476Y-95267047D02*
X270367095Y-95457523D01*
X270367095Y-95457523D02*
X270462333Y-95552761D01*
X270462333Y-95552761D02*
X270557571Y-95600380D01*
X254396904Y-67187619D02*
X254396904Y-66187619D01*
X241061904Y-123006428D02*
X241061904Y-121506428D01*
X241061904Y-121506428D02*
X240728571Y-122577857D01*
X240728571Y-122577857D02*
X240395238Y-121506428D01*
X240395238Y-121506428D02*
X240395238Y-123006428D01*
X239728571Y-121506428D02*
X239538095Y-121506428D01*
X239538095Y-121506428D02*
X239442857Y-121577857D01*
X239442857Y-121577857D02*
X239347619Y-121720714D01*
X239347619Y-121720714D02*
X239300000Y-122006428D01*
X239300000Y-122006428D02*
X239300000Y-122506428D01*
X239300000Y-122506428D02*
X239347619Y-122792142D01*
X239347619Y-122792142D02*
X239442857Y-122935000D01*
X239442857Y-122935000D02*
X239538095Y-123006428D01*
X239538095Y-123006428D02*
X239728571Y-123006428D01*
X239728571Y-123006428D02*
X239823809Y-122935000D01*
X239823809Y-122935000D02*
X239919047Y-122792142D01*
X239919047Y-122792142D02*
X239966666Y-122506428D01*
X239966666Y-122506428D02*
X239966666Y-122006428D01*
X239966666Y-122006428D02*
X239919047Y-121720714D01*
X239919047Y-121720714D02*
X239823809Y-121577857D01*
X239823809Y-121577857D02*
X239728571Y-121506428D01*
X238871428Y-123006428D02*
X238871428Y-121506428D01*
X238871428Y-121506428D02*
X238633333Y-121506428D01*
X238633333Y-121506428D02*
X238490476Y-121577857D01*
X238490476Y-121577857D02*
X238395238Y-121720714D01*
X238395238Y-121720714D02*
X238347619Y-121863571D01*
X238347619Y-121863571D02*
X238300000Y-122149285D01*
X238300000Y-122149285D02*
X238300000Y-122363571D01*
X238300000Y-122363571D02*
X238347619Y-122649285D01*
X238347619Y-122649285D02*
X238395238Y-122792142D01*
X238395238Y-122792142D02*
X238490476Y-122935000D01*
X238490476Y-122935000D02*
X238633333Y-123006428D01*
X238633333Y-123006428D02*
X238871428Y-123006428D01*
X250745714Y-105226428D02*
X251221904Y-105226428D01*
X251221904Y-105226428D02*
X251221904Y-103726428D01*
X250412380Y-105226428D02*
X250412380Y-103726428D01*
X250412380Y-103726428D02*
X250031428Y-103726428D01*
X250031428Y-103726428D02*
X249936190Y-103797857D01*
X249936190Y-103797857D02*
X249888571Y-103869285D01*
X249888571Y-103869285D02*
X249840952Y-104012142D01*
X249840952Y-104012142D02*
X249840952Y-104226428D01*
X249840952Y-104226428D02*
X249888571Y-104369285D01*
X249888571Y-104369285D02*
X249936190Y-104440714D01*
X249936190Y-104440714D02*
X250031428Y-104512142D01*
X250031428Y-104512142D02*
X250412380Y-104512142D01*
X249079047Y-104440714D02*
X249412380Y-104440714D01*
X249412380Y-105226428D02*
X249412380Y-103726428D01*
X249412380Y-103726428D02*
X248936190Y-103726428D01*
X199342476Y-114590380D02*
X199390095Y-114638000D01*
X199390095Y-114638000D02*
X199532952Y-114685619D01*
X199532952Y-114685619D02*
X199628190Y-114685619D01*
X199628190Y-114685619D02*
X199771047Y-114638000D01*
X199771047Y-114638000D02*
X199866285Y-114542761D01*
X199866285Y-114542761D02*
X199913904Y-114447523D01*
X199913904Y-114447523D02*
X199961523Y-114257047D01*
X199961523Y-114257047D02*
X199961523Y-114114190D01*
X199961523Y-114114190D02*
X199913904Y-113923714D01*
X199913904Y-113923714D02*
X199866285Y-113828476D01*
X199866285Y-113828476D02*
X199771047Y-113733238D01*
X199771047Y-113733238D02*
X199628190Y-113685619D01*
X199628190Y-113685619D02*
X199532952Y-113685619D01*
X199532952Y-113685619D02*
X199390095Y-113733238D01*
X199390095Y-113733238D02*
X199342476Y-113780857D01*
X255968571Y-71420714D02*
X255825714Y-71492142D01*
X255825714Y-71492142D02*
X255778095Y-71563571D01*
X255778095Y-71563571D02*
X255730476Y-71706428D01*
X255730476Y-71706428D02*
X255730476Y-71920714D01*
X255730476Y-71920714D02*
X255778095Y-72063571D01*
X255778095Y-72063571D02*
X255825714Y-72135000D01*
X255825714Y-72135000D02*
X255920952Y-72206428D01*
X255920952Y-72206428D02*
X256301904Y-72206428D01*
X256301904Y-72206428D02*
X256301904Y-70706428D01*
X256301904Y-70706428D02*
X255968571Y-70706428D01*
X255968571Y-70706428D02*
X255873333Y-70777857D01*
X255873333Y-70777857D02*
X255825714Y-70849285D01*
X255825714Y-70849285D02*
X255778095Y-70992142D01*
X255778095Y-70992142D02*
X255778095Y-71135000D01*
X255778095Y-71135000D02*
X255825714Y-71277857D01*
X255825714Y-71277857D02*
X255873333Y-71349285D01*
X255873333Y-71349285D02*
X255968571Y-71420714D01*
X255968571Y-71420714D02*
X256301904Y-71420714D01*
X255301904Y-72206428D02*
X255301904Y-70706428D01*
X255301904Y-70706428D02*
X254920952Y-70706428D01*
X254920952Y-70706428D02*
X254825714Y-70777857D01*
X254825714Y-70777857D02*
X254778095Y-70849285D01*
X254778095Y-70849285D02*
X254730476Y-70992142D01*
X254730476Y-70992142D02*
X254730476Y-71206428D01*
X254730476Y-71206428D02*
X254778095Y-71349285D01*
X254778095Y-71349285D02*
X254825714Y-71420714D01*
X254825714Y-71420714D02*
X254920952Y-71492142D01*
X254920952Y-71492142D02*
X255301904Y-71492142D01*
X253968571Y-71420714D02*
X254301904Y-71420714D01*
X254301904Y-72206428D02*
X254301904Y-70706428D01*
X254301904Y-70706428D02*
X253825714Y-70706428D01*
X270954523Y-76665000D02*
X270811666Y-76712619D01*
X270811666Y-76712619D02*
X270573571Y-76712619D01*
X270573571Y-76712619D02*
X270478333Y-76665000D01*
X270478333Y-76665000D02*
X270430714Y-76617380D01*
X270430714Y-76617380D02*
X270383095Y-76522142D01*
X270383095Y-76522142D02*
X270383095Y-76426904D01*
X270383095Y-76426904D02*
X270430714Y-76331666D01*
X270430714Y-76331666D02*
X270478333Y-76284047D01*
X270478333Y-76284047D02*
X270573571Y-76236428D01*
X270573571Y-76236428D02*
X270764047Y-76188809D01*
X270764047Y-76188809D02*
X270859285Y-76141190D01*
X270859285Y-76141190D02*
X270906904Y-76093571D01*
X270906904Y-76093571D02*
X270954523Y-75998333D01*
X270954523Y-75998333D02*
X270954523Y-75903095D01*
X270954523Y-75903095D02*
X270906904Y-75807857D01*
X270906904Y-75807857D02*
X270859285Y-75760238D01*
X270859285Y-75760238D02*
X270764047Y-75712619D01*
X270764047Y-75712619D02*
X270525952Y-75712619D01*
X270525952Y-75712619D02*
X270383095Y-75760238D01*
X269954523Y-76712619D02*
X269954523Y-75712619D01*
X269954523Y-75712619D02*
X269573571Y-75712619D01*
X269573571Y-75712619D02*
X269478333Y-75760238D01*
X269478333Y-75760238D02*
X269430714Y-75807857D01*
X269430714Y-75807857D02*
X269383095Y-75903095D01*
X269383095Y-75903095D02*
X269383095Y-76045952D01*
X269383095Y-76045952D02*
X269430714Y-76141190D01*
X269430714Y-76141190D02*
X269478333Y-76188809D01*
X269478333Y-76188809D02*
X269573571Y-76236428D01*
X269573571Y-76236428D02*
X269954523Y-76236428D01*
X268954523Y-76712619D02*
X268954523Y-75712619D01*
X268383095Y-76712619D02*
X268811666Y-76141190D01*
X268383095Y-75712619D02*
X268954523Y-76284047D01*
X199342476Y-86650380D02*
X199390095Y-86698000D01*
X199390095Y-86698000D02*
X199532952Y-86745619D01*
X199532952Y-86745619D02*
X199628190Y-86745619D01*
X199628190Y-86745619D02*
X199771047Y-86698000D01*
X199771047Y-86698000D02*
X199866285Y-86602761D01*
X199866285Y-86602761D02*
X199913904Y-86507523D01*
X199913904Y-86507523D02*
X199961523Y-86317047D01*
X199961523Y-86317047D02*
X199961523Y-86174190D01*
X199961523Y-86174190D02*
X199913904Y-85983714D01*
X199913904Y-85983714D02*
X199866285Y-85888476D01*
X199866285Y-85888476D02*
X199771047Y-85793238D01*
X199771047Y-85793238D02*
X199628190Y-85745619D01*
X199628190Y-85745619D02*
X199532952Y-85745619D01*
X199532952Y-85745619D02*
X199390095Y-85793238D01*
X199390095Y-85793238D02*
X199342476Y-85840857D01*
X180609904Y-58805619D02*
X180609904Y-57805619D01*
X180133714Y-58805619D02*
X180133714Y-57805619D01*
X180133714Y-57805619D02*
X179562286Y-58805619D01*
X179562286Y-58805619D02*
X179562286Y-57805619D01*
X211851904Y-117352619D02*
X211851904Y-116352619D01*
X211851904Y-116352619D02*
X211518571Y-117066904D01*
X211518571Y-117066904D02*
X211185238Y-116352619D01*
X211185238Y-116352619D02*
X211185238Y-117352619D01*
X210709047Y-117352619D02*
X210709047Y-116352619D01*
X209661429Y-117257380D02*
X209709048Y-117305000D01*
X209709048Y-117305000D02*
X209851905Y-117352619D01*
X209851905Y-117352619D02*
X209947143Y-117352619D01*
X209947143Y-117352619D02*
X210090000Y-117305000D01*
X210090000Y-117305000D02*
X210185238Y-117209761D01*
X210185238Y-117209761D02*
X210232857Y-117114523D01*
X210232857Y-117114523D02*
X210280476Y-116924047D01*
X210280476Y-116924047D02*
X210280476Y-116781190D01*
X210280476Y-116781190D02*
X210232857Y-116590714D01*
X210232857Y-116590714D02*
X210185238Y-116495476D01*
X210185238Y-116495476D02*
X210090000Y-116400238D01*
X210090000Y-116400238D02*
X209947143Y-116352619D01*
X209947143Y-116352619D02*
X209851905Y-116352619D01*
X209851905Y-116352619D02*
X209709048Y-116400238D01*
X209709048Y-116400238D02*
X209661429Y-116447857D01*
X225996571Y-58789809D02*
X225853714Y-58837428D01*
X225853714Y-58837428D02*
X225806095Y-58885047D01*
X225806095Y-58885047D02*
X225758476Y-58980285D01*
X225758476Y-58980285D02*
X225758476Y-59123142D01*
X225758476Y-59123142D02*
X225806095Y-59218380D01*
X225806095Y-59218380D02*
X225853714Y-59266000D01*
X225853714Y-59266000D02*
X225948952Y-59313619D01*
X225948952Y-59313619D02*
X226329904Y-59313619D01*
X226329904Y-59313619D02*
X226329904Y-58313619D01*
X226329904Y-58313619D02*
X225996571Y-58313619D01*
X225996571Y-58313619D02*
X225901333Y-58361238D01*
X225901333Y-58361238D02*
X225853714Y-58408857D01*
X225853714Y-58408857D02*
X225806095Y-58504095D01*
X225806095Y-58504095D02*
X225806095Y-58599333D01*
X225806095Y-58599333D02*
X225853714Y-58694571D01*
X225853714Y-58694571D02*
X225901333Y-58742190D01*
X225901333Y-58742190D02*
X225996571Y-58789809D01*
X225996571Y-58789809D02*
X226329904Y-58789809D01*
X199151904Y-90793809D02*
X198818571Y-90793809D01*
X198675714Y-91317619D02*
X199151904Y-91317619D01*
X199151904Y-91317619D02*
X199151904Y-90317619D01*
X199151904Y-90317619D02*
X198675714Y-90317619D01*
X200469523Y-64600000D02*
X200326666Y-64647619D01*
X200326666Y-64647619D02*
X200088571Y-64647619D01*
X200088571Y-64647619D02*
X199993333Y-64600000D01*
X199993333Y-64600000D02*
X199945714Y-64552380D01*
X199945714Y-64552380D02*
X199898095Y-64457142D01*
X199898095Y-64457142D02*
X199898095Y-64361904D01*
X199898095Y-64361904D02*
X199945714Y-64266666D01*
X199945714Y-64266666D02*
X199993333Y-64219047D01*
X199993333Y-64219047D02*
X200088571Y-64171428D01*
X200088571Y-64171428D02*
X200279047Y-64123809D01*
X200279047Y-64123809D02*
X200374285Y-64076190D01*
X200374285Y-64076190D02*
X200421904Y-64028571D01*
X200421904Y-64028571D02*
X200469523Y-63933333D01*
X200469523Y-63933333D02*
X200469523Y-63838095D01*
X200469523Y-63838095D02*
X200421904Y-63742857D01*
X200421904Y-63742857D02*
X200374285Y-63695238D01*
X200374285Y-63695238D02*
X200279047Y-63647619D01*
X200279047Y-63647619D02*
X200040952Y-63647619D01*
X200040952Y-63647619D02*
X199898095Y-63695238D01*
X199898095Y-61155238D02*
X199993333Y-61107619D01*
X199993333Y-61107619D02*
X200136190Y-61107619D01*
X200136190Y-61107619D02*
X200279047Y-61155238D01*
X200279047Y-61155238D02*
X200374285Y-61250476D01*
X200374285Y-61250476D02*
X200421904Y-61345714D01*
X200421904Y-61345714D02*
X200469523Y-61536190D01*
X200469523Y-61536190D02*
X200469523Y-61679047D01*
X200469523Y-61679047D02*
X200421904Y-61869523D01*
X200421904Y-61869523D02*
X200374285Y-61964761D01*
X200374285Y-61964761D02*
X200279047Y-62060000D01*
X200279047Y-62060000D02*
X200136190Y-62107619D01*
X200136190Y-62107619D02*
X200040952Y-62107619D01*
X200040952Y-62107619D02*
X199898095Y-62060000D01*
X199898095Y-62060000D02*
X199850476Y-62012380D01*
X199850476Y-62012380D02*
X199850476Y-61679047D01*
X199850476Y-61679047D02*
X200040952Y-61679047D01*
X237251904Y-72206428D02*
X237251904Y-70706428D01*
X237251904Y-70706428D02*
X236918571Y-71777857D01*
X236918571Y-71777857D02*
X236585238Y-70706428D01*
X236585238Y-70706428D02*
X236585238Y-72206428D01*
X236109047Y-72206428D02*
X236109047Y-70706428D01*
X235728095Y-70706428D02*
X235061429Y-72206428D01*
X235061429Y-70706428D02*
X235728095Y-72206428D01*
X198389904Y-118733809D02*
X198056571Y-118733809D01*
X197913714Y-119257619D02*
X198389904Y-119257619D01*
X198389904Y-119257619D02*
X198389904Y-118257619D01*
X198389904Y-118257619D02*
X197913714Y-118257619D01*
X199072571Y-82665809D02*
X198929714Y-82713428D01*
X198929714Y-82713428D02*
X198882095Y-82761047D01*
X198882095Y-82761047D02*
X198834476Y-82856285D01*
X198834476Y-82856285D02*
X198834476Y-82999142D01*
X198834476Y-82999142D02*
X198882095Y-83094380D01*
X198882095Y-83094380D02*
X198929714Y-83142000D01*
X198929714Y-83142000D02*
X199024952Y-83189619D01*
X199024952Y-83189619D02*
X199405904Y-83189619D01*
X199405904Y-83189619D02*
X199405904Y-82189619D01*
X199405904Y-82189619D02*
X199072571Y-82189619D01*
X199072571Y-82189619D02*
X198977333Y-82237238D01*
X198977333Y-82237238D02*
X198929714Y-82284857D01*
X198929714Y-82284857D02*
X198882095Y-82380095D01*
X198882095Y-82380095D02*
X198882095Y-82475333D01*
X198882095Y-82475333D02*
X198929714Y-82570571D01*
X198929714Y-82570571D02*
X198977333Y-82618190D01*
X198977333Y-82618190D02*
X199072571Y-82665809D01*
X199072571Y-82665809D02*
X199405904Y-82665809D01*
X229060476Y-103287380D02*
X229108095Y-103335000D01*
X229108095Y-103335000D02*
X229250952Y-103382619D01*
X229250952Y-103382619D02*
X229346190Y-103382619D01*
X229346190Y-103382619D02*
X229489047Y-103335000D01*
X229489047Y-103335000D02*
X229584285Y-103239761D01*
X229584285Y-103239761D02*
X229631904Y-103144523D01*
X229631904Y-103144523D02*
X229679523Y-102954047D01*
X229679523Y-102954047D02*
X229679523Y-102811190D01*
X229679523Y-102811190D02*
X229631904Y-102620714D01*
X229631904Y-102620714D02*
X229584285Y-102525476D01*
X229584285Y-102525476D02*
X229489047Y-102430238D01*
X229489047Y-102430238D02*
X229346190Y-102382619D01*
X229346190Y-102382619D02*
X229250952Y-102382619D01*
X229250952Y-102382619D02*
X229108095Y-102430238D01*
X229108095Y-102430238D02*
X229060476Y-102477857D01*
X270504095Y-91044380D02*
X270504095Y-92044380D01*
X228361904Y-66663809D02*
X228028571Y-66663809D01*
X227885714Y-67187619D02*
X228361904Y-67187619D01*
X228361904Y-67187619D02*
X228361904Y-66187619D01*
X228361904Y-66187619D02*
X227885714Y-66187619D01*
X232806904Y-102858809D02*
X232473571Y-102858809D01*
X232330714Y-103382619D02*
X232806904Y-103382619D01*
X232806904Y-103382619D02*
X232806904Y-102382619D01*
X232806904Y-102382619D02*
X232330714Y-102382619D01*
X267779523Y-110081904D02*
X267303333Y-110081904D01*
X267874761Y-110367619D02*
X267541428Y-109367619D01*
X267541428Y-109367619D02*
X267208095Y-110367619D01*
X266874761Y-110367619D02*
X266874761Y-109367619D01*
X266874761Y-109367619D02*
X266303333Y-110367619D01*
X266303333Y-110367619D02*
X266303333Y-109367619D01*
X265969999Y-109367619D02*
X265398571Y-109367619D01*
X265684285Y-110367619D02*
X265684285Y-109367619D01*
X227790476Y-64298380D02*
X227838095Y-64346000D01*
X227838095Y-64346000D02*
X227980952Y-64393619D01*
X227980952Y-64393619D02*
X228076190Y-64393619D01*
X228076190Y-64393619D02*
X228219047Y-64346000D01*
X228219047Y-64346000D02*
X228314285Y-64250761D01*
X228314285Y-64250761D02*
X228361904Y-64155523D01*
X228361904Y-64155523D02*
X228409523Y-63965047D01*
X228409523Y-63965047D02*
X228409523Y-63822190D01*
X228409523Y-63822190D02*
X228361904Y-63631714D01*
X228361904Y-63631714D02*
X228314285Y-63536476D01*
X228314285Y-63536476D02*
X228219047Y-63441238D01*
X228219047Y-63441238D02*
X228076190Y-63393619D01*
X228076190Y-63393619D02*
X227980952Y-63393619D01*
X227980952Y-63393619D02*
X227838095Y-63441238D01*
X227838095Y-63441238D02*
X227790476Y-63488857D01*
%TO.C,U81*%
X260858095Y-66235238D02*
X260953333Y-66187619D01*
X260953333Y-66187619D02*
X261096190Y-66187619D01*
X261096190Y-66187619D02*
X261239047Y-66235238D01*
X261239047Y-66235238D02*
X261334285Y-66330476D01*
X261334285Y-66330476D02*
X261381904Y-66425714D01*
X261381904Y-66425714D02*
X261429523Y-66616190D01*
X261429523Y-66616190D02*
X261429523Y-66759047D01*
X261429523Y-66759047D02*
X261381904Y-66949523D01*
X261381904Y-66949523D02*
X261334285Y-67044761D01*
X261334285Y-67044761D02*
X261239047Y-67140000D01*
X261239047Y-67140000D02*
X261096190Y-67187619D01*
X261096190Y-67187619D02*
X261000952Y-67187619D01*
X261000952Y-67187619D02*
X260858095Y-67140000D01*
X260858095Y-67140000D02*
X260810476Y-67092380D01*
X260810476Y-67092380D02*
X260810476Y-66759047D01*
X260810476Y-66759047D02*
X261000952Y-66759047D01*
X261413571Y-71218180D02*
X261604047Y-71218180D01*
X261604047Y-71218180D02*
X261699285Y-71170561D01*
X261699285Y-71170561D02*
X261794523Y-71075323D01*
X261794523Y-71075323D02*
X261842142Y-70884847D01*
X261842142Y-70884847D02*
X261842142Y-70551514D01*
X261842142Y-70551514D02*
X261794523Y-70361038D01*
X261794523Y-70361038D02*
X261699285Y-70265800D01*
X261699285Y-70265800D02*
X261604047Y-70218180D01*
X261604047Y-70218180D02*
X261413571Y-70218180D01*
X261413571Y-70218180D02*
X261318333Y-70265800D01*
X261318333Y-70265800D02*
X261223095Y-70361038D01*
X261223095Y-70361038D02*
X261175476Y-70551514D01*
X261175476Y-70551514D02*
X261175476Y-70884847D01*
X261175476Y-70884847D02*
X261223095Y-71075323D01*
X261223095Y-71075323D02*
X261318333Y-71170561D01*
X261318333Y-71170561D02*
X261413571Y-71218180D01*
%TD*%
M02*
